<?xml version="1.0" encoding="UTF-8"?>
<svg width="133px" height="154px" viewBox="0 0 133 154" version="1.1" xmlns="http://www.w3.org/2000/svg" xmlns:xlink="http://www.w3.org/1999/xlink">
    <title>Artboard 2 copy 9</title>
    <g id="CELESTIA" stroke="none" stroke-width="1" fill="none" fill-rule="evenodd">
        <g id="DESKTOP_1" transform="translate(-896.000000, -1191.000000)" stroke="#000000">
            <g id="Group-32" transform="translate(215.000000, 980.000000)">
                <g id="Artboard-2-copy-9" transform="translate(682.000000, 212.000000)">
                    <line x1="38" y1="60" x2="66" y2="76" id="Path" stroke-linecap="square" stroke-linejoin="bevel"></line>
                    <polyline id="Path" stroke-linecap="square" stroke-linejoin="bevel" points="66 109 66 76.3304193 94 60"></polyline>
                    <line x1="66.5" y1="76" x2="66.5" y2="109" id="Path" stroke-linecap="square" stroke-linejoin="bevel"></line>
                    <line x1="6" y1="111" x2="34" y2="95" id="Path" stroke-linejoin="bevel"></line>
                    <polygon id="Path" stroke-linejoin="bevel" points="18 111 6 111 11.995458 101"></polygon>
                    <line x1="126" y1="111" x2="98" y2="95" id="Path" stroke-linejoin="bevel"></line>
                    <polygon id="Path" stroke-linejoin="bevel" points="114 111 126 111 119.995458 101"></polygon>
                    <line x1="66.575" y1="6" x2="66.425" y2="38" id="Path" stroke-linejoin="bevel"></line>
                    <polygon id="Path" stroke-linejoin="bevel" points="72 16 66.0408781 6 60 15.956408"></polygon>
                    <polygon id="Path" stroke-linecap="square" stroke-linejoin="bevel" points="95 93.25 95 59.75 66.0043853 43 37 59.75 37 93.25 66.0043853 110"></polygon>
                    <polygon id="Path" points="131 114 131 38 65.5043687 2.27373675e-13 0 38 0 114 65.5043687 152"></polygon>
                </g>
            </g>
        </g>
    </g>
</svg>