<?xml version="1.0" encoding="UTF-8"?>
<svg width="180px" height="46px" viewBox="0 0 180 46" version="1.1" xmlns="http://www.w3.org/2000/svg" xmlns:xlink="http://www.w3.org/1999/xlink">
    <title>Group 3</title>
    <g id="CELESTIA" stroke="none" stroke-width="1" fill="none" fill-rule="evenodd">
        <g id="DESKTOP_1" transform="translate(-227.000000, -4624.000000)" fill="#FFFFFF">
            <g id="FOUNDED---BANNER" transform="translate(0.000000, 4485.000000)">
                <g id="Group-25" transform="translate(197.000000, 139.000000)">
                    <g id="Group-3" transform="translate(30.000000, 0.000000)">
                        <path d="M77.7027129,18.6176331 L85.6227229,18.6176331 C86.3221367,18.6176331 86.8851804,18.0035539 86.7992259,17.2878169 C86.7271149,16.6873747 86.1960976,16.2470643 85.5913164,16.2470643 L75.7453872,16.2470643 C75.0934962,16.2470643 74.5602061,16.7803544 74.5602061,17.432452 L74.5602061,29.2850895 C74.5602061,29.9371871 75.0934962,30.4704772 75.7453872,30.4704772 L85.6227229,30.4704772 C86.3221367,30.4704772 86.8851804,29.8561914 86.7992259,29.1404544 C86.7271149,28.5402189 86.1960976,28.0999084 85.5913164,28.0999084 L77.7027129,28.0999084 C77.2762461,28.0999084 76.9305683,27.7542306 76.9305683,27.3277637 L76.9305683,25.3158899 C76.9305683,24.8896297 77.2762461,24.5439518 77.7027129,24.5439518 L83.6472144,24.5439518 C84.3466283,24.5439518 84.909672,23.9298727 84.8237174,23.2143423 C84.7516065,22.6136935 84.2205891,22.173383 83.6160145,22.173383 L77.7027129,22.173383 C77.2762461,22.173383 76.9305683,21.8279118 76.9305683,21.401445 L76.9305683,19.3895711 C76.9305683,18.9633109 77.2762461,18.6176331 77.7027129,18.6176331 M64.07437,18.6176331 C65.3979875,18.6176331 66.5042392,19.0918295 67.4129607,20.02018 C67.6303265,20.2375459 67.9266218,20.3561466 68.2623818,20.3561466 C68.9142727,20.3561466 69.4477695,19.8226499 69.4477695,19.1707589 C69.4477695,18.8349989 69.289704,18.518868 68.9537374,18.2225727 C67.5511905,16.8989552 65.9116486,16.2470643 64.07437,16.2470643 C62.1186972,16.2470643 60.439484,16.9386265 59.036937,18.3411735 C57.6542258,19.7238848 56.9628701,21.4030979 56.9628701,23.3587707 C56.9628701,25.3144435 57.6542258,26.9936567 59.036937,28.3962037 C60.439484,29.778915 62.1186972,30.4704772 64.07437,30.4704772 C66.0302494,30.4704772 67.709256,29.778915 69.0921739,28.3962037 C69.5661637,27.9220073 69.5661637,27.1713512 69.0921739,26.7169905 C68.6376065,26.2430007 67.8871571,26.2430007 67.4129607,26.7169905 C66.4846101,27.6455477 65.3783585,28.0999084 64.07437,28.0999084 C62.7705881,28.0999084 61.6447074,27.6455477 60.7161502,26.7169905 C59.7875931,25.7886399 59.3334389,24.6625526 59.3334389,23.3587707 C59.3334389,22.0549889 59.7875931,20.9487372 60.7161502,20.02018 C61.6447074,19.0918295 62.7705881,18.6176331 64.07437,18.6176331 M102.698753,28.0999084 L94.8115956,28.0999084 C94.3845089,28.0999084 94.0382112,27.7536107 94.0382112,27.326524 L94.0382112,17.4634452 C94.0382112,16.858664 93.5976941,16.3276466 92.9972519,16.2557424 C92.2815149,16.1699944 91.6676424,16.7330381 91.6676424,17.432452 L91.6676424,29.2850895 C91.6676424,29.9371871 92.2009326,30.4704772 92.8530301,30.4704772 L102.730159,30.4704772 C103.42978,30.4704772 103.992823,29.8561914 103.906869,29.1404544 C103.834551,28.5402189 103.303534,28.0999084 102.698753,28.0999084 M152.573884,16.2470643 L140.752447,16.2470643 C140.052826,16.2470643 139.489989,16.8613501 139.575944,17.5768804 C139.648055,18.1773226 140.179072,18.6176331 140.783647,18.6176331 L144.72144,18.6176331 C145.1477,18.6176331 145.493584,18.9633109 145.493584,19.3897777 L145.493584,29.2850895 C145.493584,29.98471 146.107664,30.5477537 146.823607,30.4617991 C147.423843,30.3894816 147.864153,29.8584643 147.864153,29.253683 L147.864153,19.3897777 C147.864153,18.9633109 148.209831,18.6176331 148.636298,18.6176331 L152.605084,18.6176331 C153.304705,18.6176331 153.867748,18.0035539 153.782001,17.2878169 C153.709683,16.6873747 153.178666,16.2470643 152.573884,16.2470643 M158.837203,16.2470643 C158.185312,16.2470643 157.651815,16.7803544 157.651815,17.432452 L157.651815,29.2850895 C157.651815,29.9371871 158.185312,30.4704772 158.837203,30.4704772 C159.4893,30.4704772 160.022591,29.9371871 160.022591,29.2850895 L160.022591,17.432452 C160.022591,16.7803544 159.4893,16.2470643 158.837203,16.2470643 M135.121184,23.2205409 C134.034561,22.5289787 132.57292,22.173383 130.735642,22.173383 C128.305979,22.173383 127.081127,21.5807925 127.081127,20.3954047 C127.081127,19.2102236 128.305979,18.6176331 130.735642,18.6176331 C132.078888,18.6176331 133.363041,18.8744636 134.587893,19.3682891 C135.298878,19.585655 135.79291,19.3288244 136.06937,18.6374687 C136.306365,18.0250425 135.99044,17.432452 135.338549,17.1361567 C133.975467,16.5433595 132.454319,16.2470643 130.735642,16.2470643 C128.937828,16.2470643 127.496023,16.6224956 126.369935,17.3533159 C125.263684,18.0843429 124.710558,19.1114585 124.710558,20.3954047 C124.710558,21.7586936 125.263684,22.8056449 126.350306,23.4970005 C127.436722,24.1883562 128.898569,24.5439518 130.735642,24.5439518 C133.165511,24.5439518 134.390363,25.1365424 134.390363,26.3219301 C134.390363,27.5071112 133.165511,28.0999084 130.735642,28.0999084 L130.143051,28.0999084 C128.918405,28.0999084 127.634252,27.8430778 126.310428,27.3490458 C125.698415,27.1318865 125.066153,27.4083461 124.809323,28.0604437 C124.572121,28.6728699 124.927717,29.3838546 125.540143,29.6012204 C126.903432,30.1739753 128.424373,30.4704772 130.143051,30.4704772 L130.735642,30.4704772 C132.533455,30.4704772 133.975467,30.0950459 135.081719,29.3640189 C136.207806,28.6331986 136.760932,27.6058763 136.760932,26.3219301 C136.760932,24.9588479 136.207806,23.9118966 135.121184,23.2205409 M110.90762,18.6176331 L118.829489,18.6176331 C119.52911,18.6176331 120.092153,18.0035539 120.006199,17.2878169 C119.934088,16.6873747 119.40307,16.2470643 118.798289,16.2470643 L108.95236,16.2470643 C108.300262,16.2470643 107.766972,16.7803544 107.766972,17.432452 L107.766972,29.2850895 C107.766972,29.9371871 108.300262,30.4704772 108.95236,30.4704772 L118.829489,30.4704772 C119.52911,30.4704772 120.092153,29.8561914 120.006199,29.1404544 C119.933881,28.5402189 119.40307,28.0999084 118.798289,28.0999084 L110.90762,28.0999084 C110.482392,28.0999084 110.137541,27.7550571 110.137541,27.32983 L110.137541,25.3142369 C110.137541,24.8888032 110.482392,24.5439518 110.90762,24.5439518 L116.854187,24.5439518 C117.553808,24.5439518 118.116438,23.9298727 118.03069,23.2143423 C117.958579,22.6136935 117.427562,22.173383 116.822781,22.173383 L110.90762,22.173383 C110.482392,22.173383 110.137541,21.8287383 110.137541,21.4033046 L110.137541,19.3877115 C110.137541,18.9622778 110.482392,18.6176331 110.90762,18.6176331 M44.0378668,23.6009312 C44.0335278,23.7432934 43.8397168,23.7808985 43.7837224,23.6496939 C43.7597543,23.5930796 43.7351663,23.5362586 43.7101651,23.4794377 C43.6645017,23.3755071 43.6773123,23.2546335 43.7454974,23.16372 C43.7595476,23.1451241 43.788268,23.107519 43.8225672,23.0626821 C43.9147204,22.9422217 44.0475781,22.9601978 44.0475781,23.0938819 C44.0475781,23.2693036 44.0434456,23.4211704 44.0378668,23.6009312 M43.017983,20.8156729 C42.8609506,21.0985378 42.4582452,21.111555 42.2838567,20.8388145 C42.2567892,20.7966638 42.2295152,20.754513 42.2020345,20.7121555 C41.5734918,19.7470264 40.8501099,18.7996667 40.0422197,17.8789611 C39.843863,17.6529172 40.0060609,17.298148 40.3069018,17.2979414 L40.3141336,17.2979414 C42.2020345,17.2979414 43.1917517,17.7642862 43.4938323,18.3337351 C43.7459106,18.8099977 43.6686342,19.6428891 43.017983,20.8156729 M42.5960618,30.6884629 C42.4948172,30.94612 42.3888204,31.2021241 42.2774514,31.4556487 C42.2600952,31.4905677 42.2437721,31.5259 42.225796,31.5606124 C41.5309278,32.8980736 40.3649625,33.9512235 38.8068295,34.6841101 C38.4572259,34.8483742 38.0747694,34.5285241 38.1789067,34.1566053 C38.696287,32.3048632 39.0878348,30.2967085 39.3415661,28.1914417 C39.3888824,27.7988608 39.5824868,27.4385129 39.8816747,27.1798227 C40.5224081,26.6254572 41.1207841,26.0719181 41.6712238,25.5223048 L41.6772158,25.5161061 C41.9480967,25.2458452 42.4101024,25.3621731 42.5204383,25.7287197 C43.0642662,27.5364515 43.0944329,29.2202103 42.5960618,30.6884629 M38.3607336,37.3739092 C38.2022549,37.5433389 38.0404703,37.7107023 37.8755863,37.8755863 C37.5883824,38.162377 37.2943599,38.4398697 36.9939322,38.7078578 C36.8044603,38.8766676 36.5178762,38.6655004 36.6251128,38.435324 C36.6556928,38.3696184 36.6860661,38.3034995 36.7162329,38.2367607 C36.8424786,37.9584415 36.9643853,37.6728906 37.0829861,37.3819675 C37.1110866,37.3133691 37.1701804,37.262127 37.2420847,37.2437376 C37.5408594,37.1679075 37.8321958,37.0842258 38.1158871,36.9926925 C38.3458569,36.918722 38.5260309,37.1974544 38.3607336,37.3739092 M35.2504597,35.702341 C34.6215038,35.7934611 33.9601083,35.8523483 33.2681328,35.8767296 C31.5798282,35.9358234 29.7946182,35.7901552 27.9608521,35.4525356 C27.7372876,35.4114179 27.6943103,35.1091306 27.8970061,35.0066463 C28.2970253,34.8041572 28.6972512,34.5971225 29.0972705,34.3851288 C31.9031909,32.897867 34.5212923,31.2721688 36.8131384,29.6053529 C36.9850475,29.4803468 37.2218358,29.6278746 37.1869167,29.8375955 C36.8691328,31.7478115 36.4290289,33.5460387 35.8763164,35.1783488 C35.7820969,35.4564614 35.5411762,35.6601902 35.2504597,35.702341 M34.6018747,38.2472984 C33.0974634,41.2061188 31.2446881,42.8673559 29.4487338,42.8338832 C27.4967801,42.7991708 25.5504053,40.7664281 24.1090135,37.2573747 L24.1073605,37.2534489 C24.0158272,37.0307108 24.1209976,36.7757399 24.3416694,36.6798675 C24.3569594,36.673049 24.3722494,36.6664371 24.3875393,36.6596186 C24.482172,36.6185009 24.5883755,36.6110625 24.6879671,36.639163 C27.3841714,37.3958111 30.0407044,37.7906648 32.5296674,37.7906648 C32.800135,37.7906648 33.068743,37.7861192 33.3350781,37.7768212 C33.64687,37.7656636 33.953703,37.7481008 34.2551638,37.7241327 C34.5347227,37.7020242 34.7291536,37.9972864 34.6018747,38.2472984 M25.6931808,43.874016 C24.7987162,43.9888975 23.8910278,44.0477847 22.9744547,44.0477847 C18.8783895,44.0477847 14.9606386,42.8869849 11.5970467,40.7209714 C11.3656306,40.5717907 11.4639824,40.2126824 11.7389957,40.2000785 C11.7960232,40.1973924 11.8493316,40.1944997 11.8962347,40.191607 C12.7510279,40.1360258 13.6882632,40.0108132 14.703808,39.8151426 C16.8640361,39.3996267 19.2653916,38.6867824 21.779769,37.7268188 C22.0051931,37.6408642 22.2568581,37.7526465 22.3485981,37.9757977 C22.3492179,37.9772441 22.3496312,37.9784838 22.350251,37.9797235 C23.3246782,40.352152 24.5239096,42.1448004 25.8704621,43.2851446 C26.0929935,43.4737901 25.9824509,43.8368241 25.6931808,43.874016 M13.5068495,29.1088413 C15.3637572,27.596785 17.5394819,26.0880345 19.9261672,24.6596599 C19.9774094,27.7122864 20.3121363,30.6430062 20.9045202,33.2902413 C20.0193536,32.9127437 19.136873,32.4970212 18.2620374,32.0426605 C16.5675342,31.1620395 14.9732425,30.1756283 13.5068495,29.1088413 M7.73198432,37.2881613 C7.28898776,36.4523772 7.86153602,34.5163334 10.7701473,31.5738362 L10.7715937,31.5723899 C11.0753273,31.2655569 11.0461937,30.7620202 10.7071278,30.4948586 C10.5905932,30.4033252 10.4748852,30.3107588 10.3600036,30.2181923 C10.0703202,29.9840901 9.65108511,30.0055788 9.3880559,30.2690212 C9.33040849,30.3266686 9.28743121,30.3700592 9.2748273,30.3830763 C7.82083158,31.8755036 6.80322054,33.2569752 6.23315174,34.4995971 C6.0715737,34.8516802 5.58353364,34.8896985 5.36988698,34.5665425 C3.11337323,31.1554276 1.90133133,27.1583341 1.90133133,22.9744547 C1.90133133,21.4787214 2.05671072,20.0067496 2.35899802,18.5769286 C2.40466138,18.3605959 2.70984138,18.3467523 2.77389406,18.5583327 C3.21110522,20.0017907 3.92270977,21.4948379 4.90602164,23.0046214 C6.22963917,25.0373641 7.97517787,26.9913839 10.043666,28.7838257 C10.7496918,29.395632 11.4953889,29.9873961 12.2731123,30.5582914 C13.8496346,31.7151653 15.5627337,32.7827788 17.3853423,33.7297253 C18.1932325,34.1495802 18.9800472,34.5502194 19.7858712,34.9130468 C20.2344466,35.114916 20.7450084,35.1306192 21.2028817,34.9508585 C21.5828587,34.802091 21.9655218,34.6473315 22.3504577,34.4863733 C22.7690729,34.3117781 22.99615,33.8553512 22.8851942,33.4154539 C22.8713505,33.3604926 22.8603996,33.3162756 22.854201,33.2902413 C22.2196662,30.6198646 21.8669633,27.6137279 21.8254324,24.4650224 L21.8241926,24.4656423 C21.8237794,24.4282438 21.823986,24.3902254 21.8235728,24.3524137 C21.8217132,24.1802979 21.8227463,24.0069425 21.819647,23.83524 C21.8186138,23.7804853 21.8202668,23.6877122 21.8208867,23.6327509 C21.8212999,23.610849 21.8208867,23.5891537 21.8208867,23.5674585 C21.8210933,23.5674585 21.8215065,23.5672519 21.8217132,23.5672519 C21.8227463,23.3701349 21.8241926,23.1732246 21.8277052,22.9754878 C21.8374164,22.4353791 21.8568388,21.8991962 21.8847327,21.3673524 C21.8843195,21.367559 21.8841129,21.3677657 21.8836996,21.3679723 C22.0793702,17.5684089 22.7236162,13.9981955 23.7486656,10.9949515 C23.8435049,10.7170456 23.6953572,10.4153782 23.4174513,10.3205389 C23.1465704,10.2279724 22.8758962,10.1395384 22.6056353,10.0548236 C22.332275,9.96907564 22.0401121,10.1166034 21.9477523,10.3878975 C20.8367483,13.6494184 20.1511781,17.5188198 19.968318,21.6134387 C19.9449698,22.1328852 19.6623115,22.6056353 19.2149759,22.8707307 C16.789859,24.3079901 14.5626855,25.8316172 12.6386258,27.3674351 C12.2377801,27.6874918 11.6652318,27.6753012 11.2776098,27.3391279 C9.34921105,25.6671465 7.72619892,23.8511498 6.49928027,21.9669681 C4.08821362,18.2647235 3.51525211,14.7769521 4.88639259,12.1478997 C4.89011178,12.141701 4.89341773,12.1352958 4.89693029,12.1293038 C5.07173211,11.8392071 5.25355906,11.5530363 5.44282438,11.2707913 C7.01831356,9.18536018 9.95068633,7.97683084 13.8397168,7.84025401 C14.085803,7.8315759 14.3335423,7.82723685 14.5835543,7.82723685 C16.9689999,7.82723685 19.5290407,8.22085087 22.1326786,8.97212676 L22.1332984,8.97150689 C22.190326,8.98803661 22.2473535,9.0051862 22.3043811,9.02192254 C22.3483915,9.0349397 22.3924018,9.04713037 22.4364122,9.06035415 C22.4362056,9.06056077 22.4362056,9.06056077 22.4362056,9.06076739 C23.0378875,9.24052812 23.641429,9.43950466 24.2455904,9.65687051 C24.245797,9.65666389 24.245797,9.65666389 24.245797,9.65645727 C24.2598472,9.66141618 24.2738975,9.66699497 24.2879478,9.67195388 C24.4453934,9.7287748 24.6026324,9.78704208 24.7598713,9.84634245 C24.8090473,9.86493839 24.8584298,9.88374095 24.9076057,9.90275013 C24.9549221,9.92093283 25.0022384,9.93849566 25.0497614,9.95688497 L25.0491415,9.95771146 C26.3206904,10.4498839 27.5912062,11.0222256 28.8458121,11.6743231 C31.274235,12.9359542 33.4970694,14.4149511 35.4314602,16.03755 C31.7397533,16.8832519 27.4486373,18.5147356 23.1341731,20.7144284 C22.9351966,20.8160862 22.8041985,21.0160958 22.7915946,21.2392471 C22.7765113,21.5066153 22.7566756,22.0442446 22.7424187,22.4715379 C22.733534,22.7397326 23.0172253,22.9174271 23.2548401,22.7926277 L23.2573196,22.7911814 C27.5290131,20.548098 31.7922352,18.8715709 35.4533621,17.9855778 C36.1376926,17.820074 36.5806892,17.1628109 36.4846101,16.4654632 C36.4172515,15.9782496 36.3414214,15.4986811 36.2575331,15.027584 C36.1521561,14.4358199 35.8281735,13.9066622 35.3500513,13.542595 C33.6352992,12.2363337 31.7455387,11.0381354 29.7225073,9.9868451 C28.3592184,9.27854649 26.9758873,8.65785541 25.5896634,8.12849104 C25.2931615,8.01526244 25.1660893,7.66483233 25.3208488,7.38775285 C26.7490168,4.83287762 28.4476524,3.40202351 30.1024843,3.40202351 C30.1196339,3.40202351 30.1367835,3.40202351 30.153933,3.40243676 C32.1058866,3.4373558 34.0522615,5.4698918 35.4936533,8.97894527 C36.2232339,10.7552706 36.7885504,12.8037164 37.1749327,15.0298568 C37.1728665,15.0279972 37.1708002,15.0263442 37.1689407,15.0244847 C37.3338246,15.9745305 37.4666823,16.956396 37.5652407,17.9636759 C37.5567693,17.9690481 37.5476779,17.9738004 37.5392064,17.9791725 C37.5507772,17.99095 37.5629679,18.0027274 37.5747453,18.0147115 C37.738183,19.7048756 37.8071946,21.4648778 37.7749616,23.2608321 C37.7547127,24.3968373 37.6941726,25.5171393 37.596234,26.6132665 C34.9847444,28.7236988 31.7558698,30.8240067 28.2067317,32.7048825 C27.0403532,33.3230941 25.8741813,33.8985351 24.7193735,34.4283127 C24.7013975,34.4365775 24.683628,34.4446358 24.6656519,34.4529006 C24.5774245,34.4931918 24.4889905,34.5341029 24.4007631,34.5739808 C24.3999366,34.5737742 24.3993168,34.5735676 24.3986969,34.573361 C23.4418326,35.0062331 22.4940596,35.4066656 21.5619899,35.7723857 C21.5621965,35.7725923 21.5621965,35.7730056 21.5624031,35.7732122 C21.5097147,35.7938744 21.4574394,35.81371 21.4049575,35.8341656 C21.3394585,35.8597866 21.2739595,35.8849945 21.2086671,35.9102023 C21.0522546,35.9701225 20.896462,36.0292163 20.7410826,36.0872769 C20.6983119,36.1031868 20.6553346,36.1199231 20.612564,36.1356264 C20.4239185,36.2056711 20.2363062,36.2736496 20.0493137,36.3405949 C20.0259654,36.3488598 20.0026172,36.3577445 19.9794756,36.3660094 C19.9790624,36.3658028 19.9788557,36.3658028 19.9786491,36.3655961 C17.9812388,37.0769941 16.0784611,37.6144167 14.3444932,37.9481104 C10.1544152,38.7547609 8.18138615,38.1359294 7.73198432,37.2881613 M10.7414269,5.81123057 C14.2878789,3.27164533 18.5256865,1.90133133 22.9744547,1.90133133 C24.1486849,1.90133133 25.3078316,1.99741034 26.4436302,2.18481607 C26.7477771,2.2350251 26.8498481,2.62326696 26.6072745,2.81356539 C25.5066016,3.67641691 24.4840316,4.95313135 23.5790293,6.60878968 C23.3581509,7.01273477 22.8897399,7.21026496 22.4467433,7.08546555 C19.4484583,6.2414166 16.4985227,5.84429001 13.772978,5.93995578 C12.7675577,5.97528806 11.8154456,6.07715248 10.920981,6.24203646 C10.6697293,6.28831968 10.5337723,5.95979145 10.7414269,5.81123057 M39.6680281,21.169409 C39.6618294,20.9278684 39.9717617,20.8247643 40.1118511,21.021468 C40.2839669,21.2630085 40.4498839,21.5057888 40.6087759,21.7498089 C40.8199431,22.0742047 41.0164402,22.3967409 41.1990936,22.7172109 C41.3129421,22.9170139 41.285668,23.1676458 41.1307019,23.3374887 C40.8846156,23.6077497 40.6176606,23.887102 40.3277706,24.1767854 C40.2219804,24.282369 40.114124,24.3881592 40.0042013,24.4941561 C39.8678311,24.6259806 39.6391011,24.5255625 39.6465394,24.335884 C39.6599698,23.9902061 39.6698877,23.6432886 39.6760863,23.2947181 C39.6888968,22.5806341 39.6857975,21.8717156 39.6680281,21.169409 M37.4825921,7.69066002 C37.6150365,7.81628591 37.7460346,7.94397802 37.8755863,8.07352972 C39.9062627,10.1042061 41.4703877,12.4770478 42.5163059,15.0612633 C42.6218895,15.321813 42.4005978,15.5945535 42.1239316,15.5447577 C41.5187371,15.4360747 40.8377126,15.3875187 40.0837506,15.4001226 C39.5612047,15.4088007 39.1070506,15.0426673 39.0153107,14.5281797 C38.6055802,12.2307549 38.0131962,10.1085452 37.2524158,8.25638977 C37.2090252,8.15080617 37.1652215,8.0464623 37.1207978,7.94315153 C37.024099,7.71772744 37.304691,7.52164361 37.4825921,7.69066002 M45.4528111,18.1961252 C44.5449161,13.8824874 42.4101024,9.91907323 39.219866,6.72883679 C34.8806072,2.38957801 29.1113208,0 22.9744547,0 C16.8377952,0 11.0683022,2.38957801 6.72904341,6.72883679 C5.67362063,7.78425957 4.73493901,8.9246038 3.91651113,10.133753 C3.67311096,10.4577356 3.45512525,10.7999008 3.26131425,11.1579759 C1.13538531,14.6905843 0,18.7453252 0,22.9744547 C0,29.1113208 2.38978463,34.8806072 6.72904341,39.219866 C11.0683022,43.5591248 16.8377952,45.949116 22.9744547,45.949116 C29.1113208,45.949116 34.8806072,43.5591248 39.219866,39.219866 C41.2678986,37.17204 42.8809929,34.805397 44.0141054,32.2321324 C44.1525418,31.9469947 44.2734154,31.6550385 44.377346,31.3572968 C45.4088007,28.7216326 45.949116,25.8896779 45.949116,22.9744547 C45.949116,21.3698319 45.784232,19.7910368 45.465415,18.2556322 C45.4610759,18.2357965 45.4571501,18.2159608 45.4528111,18.1961252 M174.144139,25.1365424 L169.798269,25.1365424 C169.389778,25.1365424 169.1346,24.6941657 169.339362,24.3404296 L171.519219,20.5778515 C171.723775,20.2245287 172.233923,20.2253552 172.437859,20.5790913 L174.603665,24.341876 C174.807188,24.6954054 174.55201,25.1365424 174.144139,25.1365424 M179.861564,28.7123346 L173.006688,16.8200258 C172.513069,16.0495341 171.446282,16.0495341 170.95225,16.8200258 L164.09758,28.7123346 C164.014725,28.8613087 163.973608,29.0102829 163.96245,29.1828118 C163.919059,29.8543318 164.440779,30.4545674 165.113539,30.470064 C165.582983,30.4810149 165.948083,30.2444333 166.231154,29.7396569 L167.290916,27.8970061 C167.429559,27.6558787 167.68639,27.5071112 167.964709,27.5071112 L175.974806,27.5071112 C176.252919,27.5071112 176.509956,27.6558787 176.648599,27.8970061 L177.708361,29.7396569 C177.976142,30.2177791 178.336697,30.4553939 178.772048,30.4696507 C179.43737,30.4917592 180,29.9508241 180,29.2850895 C180,29.107395 179.960535,28.9294938 179.861564,28.7123346" id="Fill-1"></path>
                    </g>
                </g>
            </g>
        </g>
    </g>
</svg>