<?xml version="1.0" encoding="UTF-8"?>
<svg width="228px" height="308px" viewBox="0 0 228 308" version="1.1" xmlns="http://www.w3.org/2000/svg" xmlns:xlink="http://www.w3.org/1999/xlink">
    <title>Asset 1</title>
    <defs>
        <filter x="-2.0%" y="-2.1%" width="104.0%" height="104.3%" filterUnits="objectBoundingBox" id="filter-1">
            <feOffset dx="0" dy="2" in="SourceAlpha" result="shadowOffsetOuter1"></feOffset>
            <feGaussianBlur stdDeviation="2" in="shadowOffsetOuter1" result="shadowBlurOuter1"></feGaussianBlur>
            <feColorMatrix values="0 0 0 0 0   0 0 0 0 0   0 0 0 0 0  0 0 0 0.053452285 0" type="matrix" in="shadowBlurOuter1" result="shadowMatrixOuter1"></feColorMatrix>
            <feMerge>
                <feMergeNode in="shadowMatrixOuter1"></feMergeNode>
                <feMergeNode in="SourceGraphic"></feMergeNode>
            </feMerge>
        </filter>
        <radialGradient cx="31.6569302%" cy="78.9118841%" fx="31.6569302%" fy="78.9118841%" r="76.6132889%" id="radialGradient-2">
            <stop stop-color="#FFFFC5" offset="16%"></stop>
            <stop stop-color="#FFDAAE" offset="53%"></stop>
            <stop stop-color="#F4668D" offset="100%"></stop>
        </radialGradient>
        <radialGradient cx="31.6569314%" cy="21.0155854%" fx="31.6569314%" fy="21.0155854%" r="76.6132913%" id="radialGradient-3">
            <stop stop-color="#FFFFC5" offset="16%"></stop>
            <stop stop-color="#FFDAAE" offset="53%"></stop>
            <stop stop-color="#F4668D" offset="100%"></stop>
        </radialGradient>
        <radialGradient cx="31.612815%" cy="78.9707068%" fx="31.612815%" fy="78.9707068%" r="76.6132889%" id="radialGradient-4">
            <stop stop-color="#FFFFC5" offset="16%"></stop>
            <stop stop-color="#FFDAAE" offset="53%"></stop>
            <stop stop-color="#F4668D" offset="100%"></stop>
        </radialGradient>
        <radialGradient cx="31.612815%" cy="78.9118841%" fx="31.612815%" fy="78.9118841%" r="76.6132889%" id="radialGradient-5">
            <stop stop-color="#FFFFC5" offset="16%"></stop>
            <stop stop-color="#FFDAAE" offset="53%"></stop>
            <stop stop-color="#F4668D" offset="100%"></stop>
        </radialGradient>
    </defs>
    <g id="Symbols" stroke="none" stroke-width="1" fill="none" fill-rule="evenodd">
        <g id="FOOTER" transform="translate(-599.000000, -279.000000)">
            <g id="COMMUNITY" filter="url(#filter-1)" transform="translate(228.000000, 20.000000)">
                <g id="We-are-Hiring" transform="translate(80.000000, 75.000000)">
                    <g id="Path" transform="translate(233.293851, 126.706925)">
                        <path d="M217.577006,104.458552 C224.365495,92.7000323 222.410529,77.8477846 212.81052,68.2466315 C203.21051,58.6454783 188.359057,56.6893065 176.600537,63.4772026 C164.842018,70.2650987 159.108222,84.1046146 162.620716,97.2199366 C166.13321,110.335259 178.016214,119.456301 191.59319,119.458449 C202.319015,119.4856 212.236285,113.76061 217.577006,104.458552" fill="url(#radialGradient-2)" fill-rule="nonzero" transform="translate(191.596717, 89.458449) rotate(47.000000) translate(-191.596717, -89.458449) "></path>
                        <path d="M279.064518,369.809784 C285.852595,358.051978 283.898312,343.200712 274.299587,333.599438 C264.700862,323.998163 249.850672,322.040493 238.091865,328.826248 C226.333058,335.612004 220.597123,349.449484 224.106513,362.564784 C227.615904,375.680083 239.495722,384.803535 253.071878,384.809699 C263.800853,384.839998 273.722232,379.114584 279.064518,369.809784" fill="url(#radialGradient-2)" fill-rule="nonzero" transform="translate(253.084227, 354.809699) rotate(47.000000) translate(-253.084227, -354.809699) "></path>
                        <path d="M378.528621,277.058007 C385.316699,265.300202 383.362416,250.448935 373.76369,240.847661 C364.164965,231.246386 349.314775,229.288716 337.555968,236.074471 C325.797161,242.860227 320.061227,256.697707 323.570617,269.813007 C327.080007,282.928306 338.959826,292.051758 352.535981,292.057922 C363.264957,292.088221 373.186336,286.362807 378.528621,277.058007" fill="url(#radialGradient-3)" fill-rule="nonzero" transform="translate(352.548330, 262.057922) rotate(47.000000) translate(-352.548330, -262.057922) "></path>
                        <path d="M348.516218,143.700402 C355.304707,131.941882 353.349741,117.089635 343.749731,107.488481 C334.149722,97.8873283 319.298269,95.9311564 307.539749,102.719053 C295.78123,109.506949 290.047434,123.346465 293.559928,136.461787 C297.072422,149.577109 308.955426,158.698151 322.532402,158.700299 C333.258227,158.72745 343.175497,153.00246 348.516218,143.700402" fill="url(#radialGradient-4)" fill-rule="nonzero" transform="translate(322.535929, 128.700299) rotate(47.000000) translate(-322.535929, -128.700299) "></path>
                        <path d="M118.112903,197.210329 C124.901391,185.451809 122.946426,170.599562 113.346416,160.998408 C103.746406,151.397255 88.8949533,149.441083 77.1364338,156.22898 C65.3779143,163.016876 59.6441182,176.856392 63.1566126,189.971714 C66.669107,203.087036 78.5521103,212.208078 92.129087,212.210226 C102.854911,212.237377 112.772182,206.512387 118.112903,197.210329" fill="url(#radialGradient-2)" fill-rule="nonzero" transform="translate(92.132614, 182.210226) rotate(47.000000) translate(-92.132614, -182.210226) "></path>
                        <line x1="297.781701" y1="88.9341157" x2="224.781701" y2="130.934116" stroke="#000000" stroke-width="2" stroke-linecap="round" stroke-linejoin="round" transform="translate(261.281701, 109.934116) rotate(47.000000) translate(-261.281701, -109.934116) "></line>
                        <line x1="373.483519" y1="212.114377" x2="300.483519" y2="170.114377" stroke="#000000" stroke-width="2" stroke-linecap="round" stroke-linejoin="round" transform="translate(336.983519, 191.114377) rotate(47.000000) translate(-336.983519, -191.114377) "></line>
                        <line x1="300.597539" y1="352.686482" x2="300.597539" y2="269.686482" stroke="#000000" stroke-width="2" stroke-linecap="round" stroke-linejoin="round" transform="translate(300.597539, 311.186482) rotate(47.000000) translate(-300.597539, -311.186482) "></line>
                        <polyline stroke="#000000" stroke-width="2" stroke-linecap="round" stroke-linejoin="round" transform="translate(144.792302, 295.132576) rotate(47.000000) translate(-144.792302, -295.132576) " points="43.2923017 265.7302 144.708487 324.632576 246.292302 265.632576"></polyline>
                        <line x1="138.753251" y1="96.1966538" x2="138.443251" y2="180.196654" stroke="#000000" stroke-width="2" stroke-linecap="round" stroke-linejoin="round" transform="translate(138.598251, 138.196654) rotate(47.000000) translate(-138.598251, -138.196654) "></line>
                        <line x1="124.014896" y1="159.383635" x2="319.014896" y2="271.383635" stroke="#000000" stroke-width="2" stroke-linecap="round" stroke-linejoin="round" transform="translate(221.514896, 215.383635) rotate(47.000000) translate(-221.514896, -215.383635) "></line>
                        <line x1="324.944525" y1="167.744847" x2="130.944525" y2="279.744847" stroke="#000000" stroke-width="2" stroke-linecap="round" stroke-linejoin="round" transform="translate(227.944525, 223.744847) rotate(47.000000) translate(-227.944525, -223.744847) "></line>
                        <path d="M148.856658,329.885954 C155.645146,318.127435 153.690181,303.275187 144.090171,293.674034 C134.490161,284.072881 119.638708,282.116709 107.880189,288.904605 C96.1216691,295.692501 90.387873,309.532017 93.9003674,322.647339 C97.4128618,335.762661 109.295865,344.883703 122.872842,344.885851 C133.598666,344.913002 143.515937,339.188012 148.856658,329.885954" fill="url(#radialGradient-4)" fill-rule="nonzero" transform="translate(122.876368, 314.885851) rotate(47.000000) translate(-122.876368, -314.885851) "></path>
                        <line x1="219.074058" y1="113.496391" x2="219.074058" y2="335.496391" stroke="#000000" stroke-width="2" stroke-linecap="round" stroke-linejoin="round" transform="translate(219.074058, 224.496391) rotate(47.000000) translate(-219.074058, -224.496391) "></line>
                        <path d="M248.320761,237.134177 C255.109249,225.375658 253.154284,210.52341 243.554274,200.922257 C233.954264,191.321104 219.102812,189.364932 207.344292,196.152828 C195.585773,202.940724 189.851976,216.78024 193.364471,229.895562 C196.876965,243.010884 208.759968,252.131926 222.336945,252.134074 C233.06277,252.161225 242.98004,246.436235 248.320761,237.134177" fill="url(#radialGradient-5)" fill-rule="nonzero" transform="translate(222.340472, 222.134074) rotate(47.000000) translate(-222.340472, -222.134074) "></path>
                    </g>
                </g>
            </g>
        </g>
    </g>
</svg>