<?xml version="1.0" encoding="UTF-8"?>
<svg width="100px" height="100px" viewBox="0 0 100 100" version="1.1" xmlns="http://www.w3.org/2000/svg" xmlns:xlink="http://www.w3.org/1999/xlink">
    <title>Group 3</title>
    <g id="CELESTIA" stroke="none" stroke-width="1" fill="none" fill-rule="evenodd">
        <g id="RESOURCES" transform="translate(-1003.000000, -545.000000)">
            <g id="Group-17" transform="translate(227.000000, 368.000000)">
                <g id="Group-3" transform="translate(776.000000, 177.000000)">
                    <rect id="Rectangle" fill="#F2F2F2" x="0" y="0" width="100" height="100" rx="6"></rect>
                    <g id="microphone-podcast-1.1" transform="translate(34.000000, 27.000000)" stroke="#000000" stroke-linecap="round" stroke-linejoin="round" stroke-width="1.5">
                        <path d="M26.7857143,22.3214286 C26.7857143,28.4853209 21.7888923,33.4821429 15.625,33.4821429 C9.4611077,33.4821429 4.46428571,28.4853209 4.46428571,22.3214286 L4.46428571,11.1607143 C4.46428571,4.99682199 9.4611077,0 15.625,0 C21.7888923,0 26.7857143,4.99682199 26.7857143,11.1607143 L26.7857143,22.3214286 Z" id="Path"></path>
                        <line x1="15.625" y1="37.9464286" x2="15.625" y2="45.7589286" id="Path"></line>
                        <line x1="17.8571429" y1="0.223214286" x2="17.8571429" y2="6.69642857" id="Path"></line>
                        <line x1="13.3928571" y1="0.223214286" x2="13.3928571" y2="6.69642857" id="Path"></line>
                        <line x1="0.649553571" y1="26.7857143" x2="30.6026786" y2="26.7857143" id="Path"></line>
                        <line x1="4.46428571" y1="13.3928571" x2="11.1607143" y2="13.3928571" id="Path"></line>
                        <line x1="4.46428571" y1="17.8571429" x2="11.1607143" y2="17.8571429" id="Path"></line>
                        <line x1="20.0892857" y1="13.3928571" x2="26.7857143" y2="13.3928571" id="Path"></line>
                        <line x1="20.0892857" y1="17.8571429" x2="26.7857143" y2="17.8571429" id="Path"></line>
                        <path d="M0,18.9732143 L0,22.3214286 C0,30.9508777 6.99555087,37.9464283 15.625,37.9464283 C24.2544491,37.9464283 31.25,30.9508777 31.25,22.3214286 L31.25,18.9732143" id="Path"></path>
                    </g>
                </g>
            </g>
        </g>
    </g>
</svg>