<?xml version="1.0" encoding="utf-8"?>
<!-- Generator: Adobe Illustrator 24.3.0, SVG Export Plug-In . SVG Version: 6.00 Build 0)  -->
<svg version="1.1" id="Layer_1" xmlns="http://www.w3.org/2000/svg" xmlns:xlink="http://www.w3.org/1999/xlink" x="0px" y="0px"
	 viewBox="0 0 33 33" style="enable-background:new 0 0 33 33;" xml:space="preserve">
<style type="text/css">
	.st0{fill:none;}
</style>
<g>
	<path class="st0" d="M20.6,14.4c-1.1,0-2.3,1.1-2.3,2.5c0,1.3,1,2.5,2.3,2.5c1.3,0,2.3-1.1,2.3-2.5C22.9,15.6,21.9,14.4,20.6,14.4z
		"/>
	<path class="st0" d="M12.2,14.4c-1.3,0-2.3,1.1-2.3,2.5c0,1.3,1,2.5,2.3,2.5c1.3,0,2.3-1.1,2.3-2.5C14.5,15.6,13.5,14.4,12.2,14.4z
		"/>
	<path d="M25.2,8c-1.6-0.8-3.4-1.3-5.1-1.6c-0.2,0.5-0.5,0.8-0.7,1.3c-2-0.3-3.8-0.3-5.7,0c-0.2-0.5-0.3-0.8-0.7-1.3c0,0,0,0-0.2,0
		C11.1,6.7,9.4,7.2,7.8,8C4.5,12.9,3.7,17.5,4,22.3c2,1.5,3.9,2.5,6.2,3.1c0,0,0,0,0.2,0c0.5-0.7,1-1.3,1.3-2.1v-0.2
		c-0.7-0.3-1.3-0.5-2-1c0,0,0,0,0-0.2c0.2-0.2,0.3-0.2,0.3-0.3c4.1,1.8,8.5,1.8,12.6,0c0,0,0,0,0.2,0c0.2,0.2,0.3,0.2,0.3,0.3
		c0,0,0,0,0,0.2c-0.7,0.3-1.3,0.7-2,1c0,0,0,0,0,0.2c0.3,0.7,0.8,1.5,1.3,2.1c0,0,0,0,0.2,0c2.3-0.7,4.4-1.8,6.2-3.1
		C29.5,16.9,28,12.1,25.2,8z M12.2,19.3c-1.3,0-2.3-1.1-2.3-2.5c0-1.3,1-2.5,2.3-2.5c1.3,0,2.3,1.1,2.3,2.5
		C14.5,18.2,13.5,19.3,12.2,19.3z M20.6,19.3c-1.3,0-2.3-1.1-2.3-2.5c0-1.3,1.1-2.5,2.3-2.5c1.3,0,2.3,1.1,2.3,2.5
		C22.9,18.2,21.9,19.3,20.6,19.3z"/>
</g>
</svg>
