<?xml version="1.0" encoding="UTF-8"?>
<svg width="33px" height="33px" viewBox="0 0 33 33" version="1.1" xmlns="http://www.w3.org/2000/svg" xmlns:xlink="http://www.w3.org/1999/xlink">
    <title>TWITTER</title>
    <g id="CELESTIA" stroke="none" stroke-width="1" fill="none" fill-rule="evenodd">
        <g id="TEAM" transform="translate(-350.000000, -1080.000000)">
            <g id="TM/1-Copy-10" transform="translate(228.333333, 719.552080)">
                <g id="Group-4" transform="translate(0.000000, 265.000000)">
                    <g id="Group-16" transform="translate(0.000000, 96.000000)">
                        <g id="TWITTER" transform="translate(121.800000, 0.000000)">
                            <ellipse id="Oval" fill-opacity="0.4" fill="#CCCCCC" cx="16.1" cy="16" rx="16.1" ry="16"></ellipse>
                            <path d="M23.2805411,11.9940101 C23.29152,12.1529117 23.29152,12.3118133 23.29152,12.4721794 C23.29152,17.3585867 19.5484358,22.9941016 12.7039095,22.9941016 L12.7039095,22.9911725 C10.6820147,22.9941016 8.70212,22.4184677 7.00001474,21.3333236 C7.29401474,21.3684723 7.58948842,21.3860467 7.88569895,21.3867789 C9.56127789,21.3882435 11.1889621,20.8295249 12.5071726,19.8006188 C10.9148568,19.7706691 9.51854105,18.7388339 9.03075158,17.2326371 C9.58854105,17.3395478 10.1632779,17.3175799 10.7107516,17.16893 C8.97475158,16.8203716 7.72580421,15.3045822 7.72580421,13.544216 L7.72580421,13.497351 C8.24306737,13.7836668 8.82222526,13.9425684 9.41464632,13.9601428 C7.77959368,12.8741931 7.27559368,10.7125455 8.26296211,9.02247689 C10.1522253,11.3327744 12.9396989,12.7372595 15.9320147,12.8859094 C15.63212,11.6015158 16.0418042,10.2556119 17.0085411,9.3527286 C18.5072779,7.95263707 20.8644358,8.02439908 22.2732779,9.51309474 C23.1066463,9.34979954 23.9053095,9.04590938 24.6362568,8.6153373 C24.3585411,9.47135561 23.7771726,10.1984952 23.0005411,10.6605547 C23.73812,10.5741474 24.4587516,10.3779002 25.1373832,10.0784037 C24.6378042,10.8223854 24.0085411,11.4704403 23.2805411,11.9940101" id="Fill-1" fill="#000000"></path>
                        </g>
                    </g>
                </g>
            </g>
        </g>
    </g>
</svg>