<?xml version="1.0" encoding="UTF-8"?>
<svg width="34px" height="33px" viewBox="0 0 34 33" version="1.1" xmlns="http://www.w3.org/2000/svg" xmlns:xlink="http://www.w3.org/1999/xlink">
    <title>GITHUB</title>
    <g id="CELESTIA" stroke="none" stroke-width="1" fill="none" fill-rule="evenodd">
        <g id="TEAM" transform="translate(-268.000000, -1080.000000)">
            <g id="TM/1-Copy-10" transform="translate(228.333333, 719.552080)">
                <g id="Group-4" transform="translate(0.000000, 265.000000)">
                    <g id="Group-16" transform="translate(0.000000, 96.000000)">
                        <g id="GITHUB" transform="translate(40.600000, 0.000000)">
                            <ellipse id="Oval" fill-opacity="0.4" fill="#CCCCCC" cx="16.1" cy="16" rx="16.1" ry="16"></ellipse>
                            <path d="M19.3651808,25.5428508 C19.3651808,25.1565134 19.3797408,23.5344751 19.3797408,21.9587395 C19.3797408,20.8590525 19.0004528,20.1399151 18.5745728,19.7760056 C21.2164848,19.4844438 23.9894368,18.4882143 23.9894368,13.9606873 C23.9894368,12.674343 23.5300688,11.6224056 22.7700368,10.7983638 C22.8923408,10.5002908 23.2992928,9.30221078 22.6521008,7.67944904 C22.6521008,7.67944904 21.6583808,7.36256557 19.3943008,8.88765774 C18.4471728,8.62648209 17.4323408,8.49553252 16.4255168,8.49119165 C15.4172368,8.49553252 14.4024048,8.62648209 13.4567328,8.88765774 C11.1911968,7.36256557 10.1952928,7.67944904 10.1952928,7.67944904 C9.5502848,9.30221078 9.9572368,10.5002908 10.0795408,10.7983638 C9.3209648,11.6224056 8.8586848,12.674343 8.8586848,13.9606873 C8.8586848,18.4766386 11.6272688,19.4880612 14.2604448,19.7854108 C13.9211968,20.0798664 13.6154368,20.5993238 13.5076928,21.3611464 C12.8313808,21.6628369 11.1140288,22.1822943 10.0562448,20.3815569 C10.0562448,20.3815569 9.4301648,19.2507603 8.2398848,19.1668369 C8.2398848,19.1668369 7.0816368,19.1523673 8.1583488,19.8838038 C8.1583488,19.8838038 8.9358528,20.2462664 9.4753008,21.6078525 C9.4753008,21.6078525 10.1712688,23.8998317 13.4698368,23.1872056 C13.4756608,24.171136 13.4858528,25.2628647 13.4858528,25.5428508 L19.3651808,25.5428508 Z" id="Fill-1" fill="#000000"></path>
                        </g>
                    </g>
                </g>
            </g>
        </g>
    </g>
</svg>