<?xml version="1.0" encoding="UTF-8"?>
<svg width="33px" height="33px" viewBox="0 0 33 33" version="1.1" xmlns="http://www.w3.org/2000/svg" xmlns:xlink="http://www.w3.org/1999/xlink">
    <title>MAIL</title>
    <g id="CELESTIA" stroke="none" stroke-width="1" fill="none" fill-rule="evenodd">
        <g id="TEAM" transform="translate(-309.000000, -1080.000000)">
            <g id="TM/1-Copy-10" transform="translate(228.333333, 719.552080)">
                <g id="Group-4" transform="translate(0.000000, 265.000000)">
                    <g id="Group-16" transform="translate(0.000000, 96.000000)">
                        <g id="MAIL" transform="translate(81.200000, 0.000000)">
                            <ellipse id="Oval" fill-opacity="0.4" fill="#CCCCCC" cx="16.1" cy="16" rx="16.1" ry="16"></ellipse>
                            <path d="M23.674,8.42852174 C23.5740017,8.34556487 23.4359189,8.32465949 23.3156,8.37426087 L7.2156,14.9829565 C7.08395874,15.0375147 6.998799,15.1660006 7.00031702,15.3077365 C7.00187606,15.4494725 7.08980506,15.5761028 7.2226,15.6278261 L11.655,17.3384348 C11.7638954,17.3806228 11.8867948,17.3660082 11.9826,17.2994783 L17.8626,13.1436522 C18.0119373,13.0363523 18.2194143,13.0625095 18.3370605,13.2034687 C18.4547066,13.344428 18.4422174,13.5518979 18.3085,13.677913 L13.4085,18.370087 C13.3400602,18.4356479 13.3013976,18.5260536 13.3014,18.6205217 L13.3014,23.3043478 C13.3018575,23.4610716 13.4077264,23.5981348 13.5599524,23.6390829 C13.7121785,23.680031 13.8731597,23.6147493 13.9531,23.4796522 L16.17,19.7057391 C16.218111,19.6243522 16.3225965,19.595697 16.4059,19.6410435 L20.4841,21.8671304 C20.5809333,21.9201677 20.6972903,21.9246152 20.7979368,21.879126 C20.8985832,21.8336369 20.9716827,21.7435608 20.9951,21.6361739 L23.7951,8.7666087 C23.8195992,8.64041328 23.773226,8.51094863 23.674,8.42852174 Z" id="Fill-2" fill="#000000"></path>
                        </g>
                    </g>
                </g>
            </g>
        </g>
    </g>
</svg>