<?xml version="1.0" encoding="UTF-8"?>
<svg width="100px" height="100px" viewBox="0 0 100 100" version="1.1" xmlns="http://www.w3.org/2000/svg" xmlns:xlink="http://www.w3.org/1999/xlink">
    <title>Group 3</title>
    <g id="CELESTIA" stroke="none" stroke-width="1" fill="none" fill-rule="evenodd">
        <g id="RESOURCES" transform="translate(-1002.000000, -925.000000)">
            <g id="Group-17" transform="translate(227.000000, 368.000000)">
                <g id="Group-3" transform="translate(775.000000, 557.000000)">
                    <rect id="Rectangle" fill="#F2F2F2" x="0" y="0" width="100" height="100" rx="6"></rect>
                    <g id="folder-file.1" transform="translate(32.000000, 29.000000)" stroke="#000000" stroke-linecap="round" stroke-linejoin="round" stroke-width="1.5">
                        <path d="M27,0.144 L27,7.2 C27,8.19411255 27.8058875,9 28.8,9 L35.856,9" id="Path"></path>
                        <path d="M5.4,21.6 L5.4,1.8 C5.4,0.80588745 6.20588745,0 7.2,0 L26.2548,0 C26.7321507,0 27.1899131,0.189811125 27.5274,0.5274 L35.4726,8.4726 C35.8101889,8.81008692 36,9.26784934 36,9.7452 L36,36 C36,36.9941125 35.1941125,37.8 34.2,37.8 L25.2,37.8" id="Path"></path>
                        <line x1="10.8" y1="9" x2="22.5" y2="9" id="Path"></line>
                        <line x1="10.8" y1="9" x2="22.5" y2="9" id="Path"></line>
                        <line x1="10.8" y1="14.4" x2="24.3" y2="14.4" id="Path"></line>
                        <line x1="10.8" y1="19.8" x2="29.7" y2="19.8" id="Path"></line>
                        <path d="M23.4,25.2 L10.8,25.2 C10.2334369,25.2 9.69993789,24.9332505 9.36,24.48 L7.74,22.32 C7.40006211,21.8667495 6.86656315,21.6 6.3,21.6 L1.8,21.6 C0.80588745,21.6 0,22.4058875 0,23.4 L0,39.6 C0,40.5941125 0.80588745,41.4 1.8,41.4 L23.4,41.4 C24.3941125,41.4 25.2,40.5941125 25.2,39.6 L25.2,27 C25.2,26.0058875 24.3941125,25.2 23.4,25.2 Z" id="Path"></path>
                    </g>
                </g>
            </g>
        </g>
    </g>
</svg>