<?xml version="1.0" encoding="UTF-8"?>
<svg width="32px" height="27px" viewBox="0 0 32 27" version="1.1" xmlns="http://www.w3.org/2000/svg" xmlns:xlink="http://www.w3.org/1999/xlink">
    <title>social-media-twitter.1</title>
    <g id="CELESTIA" stroke="none" stroke-width="1" fill="none" fill-rule="evenodd" stroke-linecap="round" stroke-linejoin="round">
        <g id="DESKTOP_1" transform="translate(-958.000000, -5417.000000)" stroke="#FFFFFF" stroke-width="1.5">
            <g id="COMMUNITY---SECTION" transform="translate(0.000000, 5135.000000)">
                <g id="Group-24" transform="translate(934.000000, 110.000000)">
                    <g id="Group-18" transform="translate(25.000000, 168.458333)">
                        <g id="social-media-twitter.1" transform="translate(0.000000, 5.000000)">
                            <path d="M30,4.09677033 L27.2727273,3.41495215 L28.6363636,0.687679421 L25.2763636,1.64222488 C23.4934153,-0.0211266519 20.8920963,-0.464935904 18.6584934,0.513154557 C16.4248904,1.49124502 14.9868284,3.70389152 15,6.14222488 L15,7.50586124 C10.1740909,8.50131578 5.95363636,5.8694976 2.04545455,1.3694976 C1.36363636,5.00586124 2.04545455,7.73313397 4.09090909,9.55131578 L0,8.8694976 C0.552272727,11.6908612 1.85727273,13.9149521 5.45454545,14.3240431 L2.04545455,15.6876794 C3.40909091,18.4149521 5.54454545,18.8376794 8.86363636,19.0967703 C6.2821632,20.9412731 3.17185771,21.8982901 0,21.8240431 C17.3931818,29.5544976 27.2727273,18.1913158 27.2727273,8.18767942 L27.2727273,6.37677033 L30,4.09677033 Z" id="Path"></path>
                        </g>
                    </g>
                </g>
            </g>
        </g>
    </g>
</svg>