<?xml version="1.0" encoding="UTF-8"?>
<svg width="32px" height="27px" viewBox="0 0 32 27" version="1.1" xmlns="http://www.w3.org/2000/svg" xmlns:xlink="http://www.w3.org/1999/xlink">
    <title>Path Copy</title>
    <g id="CELESTIA" stroke="none" stroke-width="1" fill="none" fill-rule="evenodd" stroke-linecap="round" stroke-linejoin="round">
        <g id="DESKTOP_1" transform="translate(-958.000000, -5251.000000)" stroke="#FFFFFF" stroke-width="1.5">
            <g id="COMMUNITY---SECTION" transform="translate(0.000000, 5135.000000)">
                <g id="Group-24" transform="translate(934.000000, 110.000000)">
                    <g id="Group-19" transform="translate(25.000000, 0.000000)">
                        <path d="M29.9175619,9.33233065 L25.3668984,30.6133112 C25.0099846,32.1301957 24.1846204,32.5317242 22.8908057,31.8178965 L15.9978984,26.7318868 L12.6518252,29.9441112 C12.2056821,30.3902543 11.7372325,30.6133259 11.2464764,30.6133259 L11.7818471,23.5865942 L24.5638326,12.0761112 C24.8761317,11.763812 24.8761317,11.5853551 24.5638326,11.5407404 C24.296148,11.451512 24.0061553,11.5184333 23.6938545,11.7415043 L7.90043011,21.7127873 L1.07445938,19.5713044 C0.316017103,19.3482328 -0.0408967191,19.0136263 0.00371791652,18.5674849 C0.0483322259,18.1213418 0.516781821,17.7421206 1.4090667,17.4298214 L27.9769158,7.1239287 C28.6461288,6.90085716 29.1814996,6.97893204 29.583028,7.35815334 C29.9845565,7.73737448 30.0960922,8.39543464 29.9176353,9.33233383 L29.9175619,9.33233065 Z" id="Path-Copy"></path>
                    </g>
                </g>
            </g>
        </g>
    </g>
</svg>