<?xml version="1.0" encoding="UTF-8"?>
<svg width="30px" height="33px" viewBox="0 0 30 33" version="1.1" xmlns="http://www.w3.org/2000/svg" xmlns:xlink="http://www.w3.org/1999/xlink">
    <title>Group 3 Copy</title>
    <g id="CELESTIA" stroke="none" stroke-width="1" fill="none" fill-rule="evenodd">
        <g id="DESKTOP_1" transform="translate(-959.000000, -5759.000000)" stroke="#FFFFFF" stroke-width="1.5">
            <g id="COMMUNITY---SECTION" transform="translate(0.000000, 5135.000000)">
                <g id="Group-24" transform="translate(934.000000, 110.000000)">
                    <g id="Group-20" transform="translate(26.000000, 512.916667)">
                        <g id="Group-3-Copy" transform="translate(0.000000, 2.083333)">
                            <path d="M20.0513068,30.9447771 C20.0513068,30.2765463 20.0763342,27.4709779 20.0763342,24.7454972 C20.0763342,22.8434169 19.4243712,21.5995566 18.6923206,20.9701182 C23.2335371,20.4658167 28,18.7426821 28,10.9116176 C28,8.68668428 27.2103864,6.86719438 25.9039576,5.44188557 C26.1141876,4.92632172 26.8137026,2.85405536 25.7012359,0.0472356536 C25.7012359,0.0472356536 23.9931178,-0.500863781 20.1013616,2.13702117 C18.4733311,1.68527712 16.7289233,1.4587794 14.9982805,1.45127119 C13.2651351,1.4587794 11.5207273,1.68527712 9.89519949,2.13702117 C6.00094049,-0.500863781 4.28906828,0.0472356536 4.28906828,0.0472356536 C3.18035573,2.85405536 3.87987076,4.92632172 4.09010068,5.44188557 C2.78617463,6.86719438 1.99155558,8.68668428 1.99155558,10.9116176 C1.99155558,18.7226602 6.75051026,20.4720735 11.2767104,20.986386 C10.6935726,21.495693 10.1679978,22.3941756 9.98279529,23.7118667 C8.82027388,24.2336874 5.86829542,25.1321701 4.05005688,22.0175137 C4.05005688,22.0175137 2.97387991,20.0616246 0.927892294,19.9164659 C0.927892294,19.9164659 -1.0630351,19.8914385 0.787739014,21.1565721 C0.787739014,21.1565721 2.12420065,21.7835078 3.05146476,24.1385834 C3.05146476,24.1385834 4.24777312,28.1029191 9.91772412,26.870321 C9.92773507,28.5721823 9.94525423,30.4604974 9.94525423,30.9447771 L20.0513068,30.9447771 Z" id="Fill-1"></path>
                        </g>
                    </g>
                </g>
            </g>
        </g>
    </g>
</svg>