<?xml version="1.0" encoding="UTF-8"?>
<svg width="32px" height="24px" viewBox="0 0 32 24" version="1.1" xmlns="http://www.w3.org/2000/svg" xmlns:xlink="http://www.w3.org/1999/xlink">
    <title>discord@1x</title>
    <g id="QUICK-COVER" stroke="none" stroke-width="1" fill="none" fill-rule="evenodd" stroke-linecap="round" stroke-linejoin="round">
        <g id="discord" transform="translate(1.000000, 1.000000)" stroke="#FFFFFF" stroke-width="1.5">
            <path d="M20.0454545,19.1590909 L21.9545455,21.8181818 C23.25,21.75 28.2272727,20.7954545 30,17.7272727 C30,11.1818182 27.1363636,3.54545455 25.9090909,2.38636364 C23.3181818,0.340909091 19.0909091,0 19.0909091,0 C19.0909091,0 18.75,0.75 18.6818182,1.70454545" id="Path"></path>
            <path d="M19.4318182,9.54545455 C18.1363636,9.54545455 17.0454545,10.7727273 17.0454545,12.2727273 C17.0454545,13.7727273 18.1363636,15 19.4318182,15 C20.7272727,15 21.8181818,13.7727273 21.8181818,12.2727273 C21.8181818,10.7727273 20.7272727,9.54545455 19.4318182,9.54545455 L19.4318182,9.54545455 Z M11.3181818,1.70454545 C11.25,0.75 10.9090909,0 10.9090909,0 C10.9090909,0 6.68181818,0.340909091 4.09090909,2.38636364 C2.86363636,3.54545455 0,11.1818182 0,17.7272727 C1.77272727,20.7954545 6.75,21.75 8.04545455,21.8181818 L9.95454545,19.1590909" id="Shape"></path>
            <path d="M5.11363636,16.9090909 C5.11363636,16.9090909 8.38636364,19.7727273 15,19.7727273 C21.6136364,19.7727273 24.8863636,16.9090909 24.8863636,16.9090909 M23.9318182,3.68181818 C20.5227273,1.63636364 16.4318182,1.36363636 15,1.36363636 C13.5681818,1.36363636 9.47727273,1.63636364 6.06818182,3.68181818 M10.5681818,9.54545455 C9.27272727,9.54545455 8.18181818,10.7727273 8.18181818,12.2727273 C8.18181818,13.7727273 9.27272727,15 10.5681818,15 C11.8636364,15 12.9545455,13.7727273 12.9545455,12.2727273 C12.9545455,10.7727273 11.8636364,9.54545455 10.5681818,9.54545455 Z" id="Shape"></path>
        </g>
    </g>
</svg>