<svg width="56" height="65" viewBox="0 0 56 65" fill="none" xmlns="http://www.w3.org/2000/svg">
<path d="M52.6569 4.599L45.0479 2.28V0L37.0019 4.366V2.955L33.9709 4.599L26.3619 2.28V0L0.940918 13.79V61.671L11.5859 64.627L19.6279 60.262V61.671L30.2729 64.63L55.6889 50.841V2.958L52.6569 4.599ZM26.3619 8.193L25.1939 8.786L11.4849 15.748L4.57092 13.825L25.1289 2.877L25.1939 2.899L26.3619 3.253L32.4399 5.105L26.3619 8.193ZM45.0479 8.193L43.8799 8.787L37.0019 12.282L30.1719 15.752L26.3619 14.693L25.1939 14.368L23.2569 13.831L25.1939 12.801L26.3619 12.177L37.0019 6.513L43.8179 2.883L43.8799 2.904L45.0479 3.258L51.1269 5.111L45.0479 8.193Z" fill="white"/>
</svg>
