<?xml version="1.0" encoding="UTF-8"?>
<svg width="16px" height="14px" viewBox="0 0 16 14" version="1.1" xmlns="http://www.w3.org/2000/svg" xmlns:xlink="http://www.w3.org/1999/xlink">
    <title>job</title>
    <g id="CELESTIA" stroke="none" stroke-width="1" fill="none" fill-rule="evenodd">
        <g id="NAV-DD-COMMUNITY" transform="translate(-955.000000, -158.000000)" fill="#FFFFFF">
            <g id="32job" transform="translate(947.000000, 149.000000)">
                <g id="job" transform="translate(8.960000, 9.600000)">
                    <path d="M3.38788388,1.58828551 L3.38788388,2.68052794 L2.08547981,2.7856549 C1.16462516,2.8599888 0.413466776,3.55332851 0.265775431,4.46530276 C0.233682992,4.66350087 0.204489175,4.86204497 0.178209357,5.06088124 C0.165169401,5.15954204 0.217782856,5.25503511 0.307740102,5.29763025 L0.366981177,5.32569384 C4.54092818,7.30206222 9.53906039,7.30206222 13.7129997,5.32569384 L13.7722023,5.29763025 C13.8621596,5.25503511 13.9148269,5.15954204 13.9017562,5.06088893 C13.875461,4.86205266 13.846321,4.66350087 13.8141824,4.46530276 C13.6664834,3.55332851 12.9153788,2.8599888 11.9945088,2.7856549 L10.6921278,2.68052794 L10.6921278,1.58828551 C10.6921278,0.922255907 10.2048209,0.356455586 9.54621084,0.257656389 L8.608272,0.116961719 C7.56853539,-0.0389872396 6.51142243,-0.0389872396 5.47175501,0.116961719 L4.5338008,0.257656389 C3.87514461,0.356455586 3.38788388,0.922255907 3.38788388,1.58828551 Z M8.43712258,1.25750426 C7.51087049,1.11856261 6.56908733,1.11856261 5.64283524,1.25750426 L4.70488103,1.39819125 C4.61078729,1.41230761 4.54118191,1.49313843 4.54118191,1.58828551 L4.54118191,2.59935114 C6.20572156,2.50399646 7.87431314,2.50399646 9.53882973,2.59935114 L9.53882973,1.58828551 C9.53882973,1.49313843 9.46917053,1.41230761 9.3751383,1.39819125 L8.43712258,1.25750426 Z" id="Shape"></path>
                    <path d="M14.0507623,6.67020867 C14.0449958,6.56249064 13.9322032,6.49521492 13.8335578,6.53888647 C9.55028583,8.43536974 4.52967968,8.43536974 0.246392336,6.53888647 C0.147746912,6.49521492 0.0349697426,6.56249064 0.0292340071,6.67020867 C-0.049021108,8.13989479 0.0298337221,9.61580871 0.265775431,11.0728085 C0.413466776,11.9847597 1.16462516,12.6781225 2.08547981,12.7523949 L3.52473423,12.8685705 C5.86442224,13.0574807 8.21553558,13.0574807 10.5552697,12.8685705 L11.9945088,12.7523949 C12.9153788,12.6781225 13.6664834,11.9847597 13.8141824,11.0728085 C14.0501472,9.61580871 14.1290327,8.13989479 14.0507623,6.67020867 Z" id="Path" fill-rule="nonzero"></path>
                </g>
            </g>
        </g>
    </g>
</svg>