<svg xmlns="http://www.w3.org/2000/svg" viewBox="0 0 15 13.93"><defs><style>.cls-1{fill:#fff;}</style></defs><g id="Layer_2" data-name="Layer 2"><g id="Layer_1-2" data-name="Layer 1"><path class="cls-1" d="M15,2.46h0v-1A1.5,1.5,0,0,0,13.5,0H1.5A1.5,1.5,0,0,0,0,1.5v1Z"/><path class="cls-1" d="M15,4H0v8.47a1.5,1.5,0,0,0,1.5,1.5h12a1.5,1.5,0,0,0,1.5-1.5V4ZM4.29,11.46a.71.71,0,0,1-.53-.22.74.74,0,0,1,0-1.06L5.37,8.57,3.76,7a.74.74,0,0,1,0-1.06.75.75,0,0,1,1.06,0L7,8A.75.75,0,0,1,7,9.1L4.82,11.24A.74.74,0,0,1,4.29,11.46Zm6.42,0H7.5a.75.75,0,0,1,0-1.5h3.21a.75.75,0,0,1,0,1.5Z"/></g></g></svg>