<?xml version="1.0" encoding="UTF-8"?>
<svg width="42px" height="42px" viewBox="0 0 42 42" version="1.1" xmlns="http://www.w3.org/2000/svg" xmlns:xlink="http://www.w3.org/1999/xlink">
    <title>black_discord copy 3@1x</title>
    <g id="CELESTIA" stroke="none" stroke-width="1" fill="none" fill-rule="evenodd">
        <g id="ALLICO" transform="translate(-98.000000, -93.000000)">
            <g id="black_discord-copy-3" transform="translate(98.000000, 93.000000)">
                <rect id="Rectangle" x="0" y="0" width="42" height="42"></rect>
                <path d="M17.9931448,13 L18.1816624,13.2262211 C14.7883462,14.1876607 13.2425021,15.6769494 13.2425021,15.6769494 C13.2425021,15.6769494 13.6572408,15.4507284 14.3547558,15.1491003 C16.3718937,14.2630677 17.9742931,14.0368466 18.6341045,13.9614396 C18.7472151,13.9425878 18.8414739,13.9237361 18.9545844,13.9237361 C20.1045416,13.772922 21.4053128,13.7352185 22.7626392,13.8860326 C24.5535561,14.0934019 26.4764353,14.6212511 28.437018,15.6769494 C28.437018,15.6769494 26.9477292,14.2630677 23.7429306,13.3016281 L24.0068552,13 L24.0991228,13.0008275 C24.5821829,13.0130333 26.8890793,13.1675712 29.285347,14.9605827 C29.285347,14.9605827 32,19.8431877 32,25.856898 C32,25.8380463 30.4164524,28.5526992 26.2502142,28.6846615 C26.2502142,28.6846615 25.571551,27.874036 25.0059983,27.176521 C27.4755784,26.479006 28.4181662,24.9520137 28.4181662,24.9520137 C27.6452442,25.4610111 26.9100257,25.8191945 26.2502142,26.0642674 C25.3076264,26.4601542 24.4027421,26.7052271 23.5167095,26.8748929 C21.7069409,27.2142245 20.0479863,27.1199657 18.6341045,26.8560411 C17.5595544,26.6486718 16.6358183,26.3658955 15.8628963,26.0454156 C15.4293059,25.8757498 14.958012,25.6683805 14.4867181,25.4044559 C14.4301628,25.3667524 14.3736075,25.3479006 14.3170523,25.3101971 C14.2793488,25.2913453 14.260497,25.2724936 14.2416452,25.2724936 C13.9023136,25.083976 13.7137961,24.9520137 13.7137961,24.9520137 C13.7137961,24.9520137 14.6186804,26.4413025 17.0128535,27.1576692 C16.4473008,27.874036 15.7497858,28.7035133 15.7497858,28.7035133 C11.5835476,28.571551 10,25.856898 10,25.856898 C10,19.8431877 12.714653,14.9605827 12.714653,14.9605827 C15.1276778,13.1675712 17.4215409,13.0130333 17.9014979,13.0008275 L17.9931448,13 L17.9931448,13 Z M24.3650386,19.9562982 C23.2904884,19.9562982 22.4421594,20.8800343 22.4421594,22.0299914 C22.4421594,23.1799486 23.3093402,24.1036847 24.3650386,24.1036847 C25.4395887,24.1036847 26.2879177,23.1799486 26.2879177,22.0299914 C26.2879177,20.8800343 25.4207369,19.9562982 24.3650386,19.9562982 Z M17.4841474,19.9562982 C16.4095973,19.9562982 15.5612682,20.8800343 15.5612682,22.0299914 C15.5612682,23.1799486 16.428449,24.1036847 17.4841474,24.1036847 C18.5586975,24.1036847 19.4070266,23.1799486 19.4070266,22.0299914 C19.4258783,20.8800343 18.5586975,19.9562982 17.4841474,19.9562982 Z" id="Combined-Shape" fill="#FFFFFF" fill-rule="nonzero"></path>
            </g>
        </g>
    </g>
</svg>