<svg xmlns="http://www.w3.org/2000/svg" viewBox="0 0 17.13 12.23"><defs><style>.cls-1{fill:#fff;}</style></defs><g id="Layer_2" data-name="Layer 2"><g id="Layer_1-2" data-name="Layer 1"><path class="cls-1" d="M15,1.53A7.4,7.4,0,0,0,11,0h-.07L10.7.23a9.55,9.55,0,0,1,3.65,1.85A12.09,12.09,0,0,0,7,.72a1.07,1.07,0,0,0-.25,0,11.5,11.5,0,0,0-3.33.92c-.54.24-.87.41-.87.41A9.62,9.62,0,0,1,6.37.18L6.22,0H6.15a7.42,7.42,0,0,0-4,1.53A19.39,19.39,0,0,0,0,10a5.34,5.34,0,0,0,4.48,2.22s.54-.65,1-1.21A4.58,4.58,0,0,1,2.89,9.31l.41.25.06,0,.13.08c.37.2.74.36,1.07.5a11.39,11.39,0,0,0,2.16.63,10.27,10.27,0,0,0,3.8,0,10.22,10.22,0,0,0,2.13-.63,8.43,8.43,0,0,0,1.69-.86A4.68,4.68,0,0,1,11.68,11l1,1.17A5.36,5.36,0,0,0,17.13,10,19.39,19.39,0,0,0,15,1.53ZM5.83,8.65A1.57,1.57,0,0,1,4.33,7a1.55,1.55,0,0,1,1.5-1.61A1.54,1.54,0,0,1,7.32,7,1.55,1.55,0,0,1,5.83,8.65Zm5.35,0A1.56,1.56,0,0,1,9.69,7a1.55,1.55,0,0,1,1.49-1.61A1.56,1.56,0,0,1,12.68,7,1.55,1.55,0,0,1,11.18,8.65Z"/></g></g></svg>