<?xml version="1.0" encoding="utf-8"?>
<!-- Generator: Adobe Illustrator 25.4.1, SVG Export Plug-In . SVG Version: 6.00 Build 0)  -->
<svg version="1.1" id="Réteg_1" xmlns="http://www.w3.org/2000/svg" xmlns:xlink="http://www.w3.org/1999/xlink" x="0px" y="0px"
	 viewBox="0 0 50 50" style="enable-background:new 0 0 50 50;" xml:space="preserve">
<style type="text/css">
	.st0{fill:none;stroke:#FFFFFF;stroke-width:1.5;stroke-linecap:round;stroke-linejoin:round;stroke-miterlimit:10;}
</style>
<path class="st0" d="M32.4,36.1l2.8,3.9c1.9-0.1,9.2-1.5,11.8-6c0-9.6-4.2-20.8-6-22.5C37.2,8.5,31,8,31,8s-0.5,1.1-0.6,2.5"/>
<path class="st0" d="M31.5,22c-1.9,0-3.5,1.8-3.5,4s1.6,4,3.5,4s3.5-1.8,3.5-4S33.4,22,31.5,22L31.5,22z M19.6,10.5
	C19.5,9.1,19,8,19,8s-6.2,0.5-10,3.5C7.2,13.2,3,24.4,3,34c2.6,4.5,9.9,5.9,11.8,6l2.8-3.9"/>
<path class="st0" d="M10.5,32.8c0,0,4.8,4.2,14.5,4.2s14.5-4.2,14.5-4.2 M38.1,13.4C33.1,10.4,27.1,10,25,10s-8.1,0.4-13.1,3.4
	 M18.5,22c-1.9,0-3.5,1.8-3.5,4s1.6,4,3.5,4s3.5-1.8,3.5-4S20.4,22,18.5,22z"/>
</svg>
