<?xml version="1.0" encoding="utf-8"?>
<!-- Generator: Adobe Illustrator 26.2.1, SVG Export Plug-In . SVG Version: 6.00 Build 0)  -->
<svg version="1.1" id="Capa_1" xmlns="http://www.w3.org/2000/svg" xmlns:xlink="http://www.w3.org/1999/xlink" x="0px" y="0px"
	 viewBox="0 0 482.1 482.1" style="enable-background:new 0 0 482.1 482.1;" xml:space="preserve">
<style type="text/css">
	.st0{fill:#FFFFFF;}
</style>
<g>
	<path class="st0" d="M302.6,0H109C80.7,0,57.7,23,57.7,51.3v379.5c0,28.3,23,51.3,51.3,51.3h264.2c28.3,0,51.3-23,51.3-51.3V121.4
		L302.6,0z M373.2,450.7H109c-11,0-19.9-8.9-19.9-19.9V51.3c0-11,8.9-19.9,19.9-19.9l181.9-0.2v67.2c0,19.7,15.9,35.6,35.6,35.6
		l65.9-0.2l0.7,296.9C393,441.8,384.1,450.7,373.2,450.7z"/>
	<path class="st0" d="M232.5,91.2c0-4.7-3.8-8.4-8.4-8.4h-97.5c-4.7,0-8.4,3.8-8.4,8.4v97.5c0,4.7,3.8,8.4,8.4,8.4h97.5
		c4.7,0,8.4-3.8,8.4-8.4V91.2z"/>
	<path class="st0" d="M232.5,412.7c0,4.7,3.8,8.4,8.4,8.4h113.6c4.7,0,8.4-3.8,8.4-8.4v-89.3c0-4.7-3.8-8.4-8.4-8.4H240.9
		c-4.7,0-8.4,3.8-8.4,8.4V412.7z M256.7,339.2h82V397h-82V339.2z"/>
	<path class="st0" d="M344.1,216.9H131.6c-6.7,0-12.1,5.4-12.1,12.1s5.4,12.1,12.1,12.1h212.5c6.7,0,12.1-5.4,12.1-12.1
		S350.8,216.9,344.1,216.9z"/>
	<path class="st0" d="M260.7,192.7h83.4c6.7,0,12.1-5.4,12.1-12.1s-5.4-12.1-12.1-12.1h-83.4c-6.7,0-12.1,5.4-12.1,12.1
		C248.6,187.2,254.1,192.7,260.7,192.7z"/>
	<path class="st0" d="M344.1,265.3H131.6c-6.7,0-12.1,5.4-12.1,12.1s5.4,12.1,12.1,12.1h212.5c6.7,0,12.1-5.4,12.1-12.1
		S350.8,265.3,344.1,265.3z"/>
	<path class="st0" d="M198.9,313.7h-67.2c-6.7,0-12.1,5.4-12.1,12.1c0,6.7,5.4,12.1,12.1,12.1h67.2c6.7,0,12.1-5.4,12.1-12.1
		C211,319.1,205.5,313.7,198.9,313.7z"/>
	<path class="st0" d="M198.9,362.1h-67.2c-6.7,0-12.1,5.4-12.1,12.1c0,6.7,5.4,12.1,12.1,12.1h67.2c6.7,0,12.1-5.4,12.1-12.1
		C211,367.5,205.5,362.1,198.9,362.1z"/>
</g>
</svg>
