<svg xmlns="http://www.w3.org/2000/svg" viewBox="0 0 16.75 17.58"><defs><style>.cls-1{fill:#fff;}</style></defs><g id="Layer_2" data-name="Layer 2"><g id="Layer_1-2" data-name="Layer 1"><path class="cls-1" d="M15.91,14.32A6.46,6.46,0,0,0,16.4,9a6.31,6.31,0,0,0-1.29-2.16,8.41,8.41,0,0,1-.31,2.32,8.27,8.27,0,0,1-7.47,5.94H6.91A7.86,7.86,0,0,1,5.1,14.9,6.39,6.39,0,0,0,14,16.43l2.71.68-.77-2.72A.09.09,0,0,1,15.91,14.32Z"/><path class="cls-1" d="M7,0A6.81,6.81,0,0,0,.91,10.22L0,13.11,3,12.42a6.76,6.76,0,0,0,4.23,1.2A6.82,6.82,0,0,0,7,0ZM6.81,11.05a.82.82,0,1,1,.8-.82A.78.78,0,0,1,6.81,11.05ZM9,6.62a2.8,2.8,0,0,1-1.46,1v.44h0A.75.75,0,1,1,6,8.06s0-.71,0-1.09a.76.76,0,0,1,.75-.72h0a1.39,1.39,0,0,0,1-.52,1.29,1.29,0,0,0,.07-1.32,1.23,1.23,0,0,0-1.16-.57,1.08,1.08,0,0,0-1,.77.76.76,0,0,1-1,.4.75.75,0,0,1-.4-1A2.61,2.61,0,0,1,6.63,2.34,2.69,2.69,0,0,1,9.16,3.65,2.76,2.76,0,0,1,9,6.62Z"/></g></g></svg>