<?xml version="1.0" encoding="UTF-8"?>
<svg width="42px" height="42px" viewBox="0 0 42 42" version="1.1" xmlns="http://www.w3.org/2000/svg" xmlns:xlink="http://www.w3.org/1999/xlink">
    <title>black_discord copy 10@1x</title>
    <g id="CELESTIA" stroke="none" stroke-width="1" fill="none" fill-rule="evenodd">
        <g id="ALLICO" transform="translate(-426.000000, -93.000000)">
            <g id="black_discord-copy-10" transform="translate(426.000000, 93.000000)">
                <rect id="Rectangle" x="0" y="0" width="42" height="42"></rect>
                <g id="conversation-chat-1" transform="translate(11.000000, 12.000000)" fill="#FFFFFF" fill-rule="nonzero">
                    <path d="M8.5106383,8.93617021 C8.5106383,7.76109628 9.46322394,6.80851064 10.6382979,6.80851064 L16.8085106,6.80851064 C16.926018,6.80851064 17.0212766,6.71325207 17.0212766,6.59574468 L17.0212766,1.27659574 C17.0212766,0.571551383 16.4497252,0 15.7446809,0 L1.27659574,0 C0.571551383,0 0,0.571551383 0,1.27659574 L0,9.78723404 C0,10.4922784 0.571551383,11.0638298 1.27659574,11.0638298 L2.55319149,11.0638298 L2.55319149,14.0425532 C2.55288313,14.2149012 2.65656415,14.3704157 2.81577593,14.4364122 C2.97498771,14.5024086 3.15828579,14.4658526 3.28,14.3438298 L6.55914894,11.0638298 L8.29787234,11.0638298 C8.41537973,11.0638298 8.5106383,10.9685712 8.5106383,10.8510638 L8.5106383,8.93617021 Z" id="Path"></path>
                    <path d="M19.1489362,8.08510638 L10.6382979,8.08510638 C10.1682683,8.08510638 9.78723404,8.46614064 9.78723404,8.93617021 L9.78723404,14.0425532 C9.78723404,14.5125828 10.1682683,14.893617 10.6382979,14.893617 L14.4680851,14.893617 L17.5897872,17.6680851 C17.7149576,17.7792391 17.8936689,17.8066788 18.0464208,17.7381974 C18.1991727,17.6697161 18.2975825,17.5180383 18.2978723,17.3506383 L18.2978723,14.893617 L19.1489362,14.893617 C19.6189657,14.893617 20,14.5125828 20,14.0425532 L20,8.93617021 C20,8.46614064 19.6189657,8.08510638 19.1489362,8.08510638 Z" id="Path"></path>
                </g>
            </g>
        </g>
    </g>
</svg>