<svg xmlns="http://www.w3.org/2000/svg" viewBox="0 0 15.57 13.84"><defs><style>.cls-1{fill:#fff;}</style></defs><g id="Layer_2" data-name="Layer 2"><g id="Layer_1-2" data-name="Layer 1"><path class="cls-1" d="M6.63,7A1.65,1.65,0,0,1,8.28,5.3h4.81a.16.16,0,0,0,.16-.16V1a1,1,0,0,0-1-1H1A1,1,0,0,0,0,1V7.62a1,1,0,0,0,1,1H2v2.32a.33.33,0,0,0,.2.31.34.34,0,0,0,.36-.07L5.11,8.61H6.46a.17.17,0,0,0,.17-.16Z"/><path class="cls-1" d="M14.91,6.29H8.28A.67.67,0,0,0,7.62,7v4a.67.67,0,0,0,.66.67h3l2.44,2.16a.34.34,0,0,0,.35.05.33.33,0,0,0,.2-.3V11.6h.66a.66.66,0,0,0,.66-.67V7A.66.66,0,0,0,14.91,6.29Z"/></g></g></svg>