<svg xmlns="http://www.w3.org/2000/svg" viewBox="0 0 15.44 17.32"><defs><style>.cls-1{fill:#fff;}</style></defs><g id="Layer_2" data-name="Layer 2"><g id="Layer_1-2" data-name="Layer 1"><path class="cls-1" d="M15.43,6.45a5.91,5.91,0,0,0-.08-1.33c0-.1,0-.2-.08-.3v0a4.11,4.11,0,0,0-.9-1.66.3.3,0,0,1,0-.23,3.63,3.63,0,0,0,.19-1,2.29,2.29,0,0,0,0-.37V1.49a5,5,0,0,0-.19-1,1.83,1.83,0,0,0-.12-.34.42.42,0,0,0-.1-.12C14,0,13.84,0,13.57.05a5.07,5.07,0,0,0-.66.2h0a8.88,8.88,0,0,0-1.66.83.46.46,0,0,1-.34.06,10.72,10.72,0,0,0-5.25,0h0A.46.46,0,0,1,5.3,1.1,8.23,8.23,0,0,0,3,.07H3C2.45,0,2.36,0,2.21.52a3.76,3.76,0,0,0,0,2.39.3.3,0,0,1,0,.23,4.66,4.66,0,0,0-1,3.71,6.78,6.78,0,0,0,.62,2.29,4,4,0,0,0,2.4,2c.62.21,1.32.31,2,.46h0a8.15,8.15,0,0,0-.44.75,1.72,1.72,0,0,0-.17.48c0,.27-.08.34-.29.4a2.57,2.57,0,0,1-2.1-.1,2.44,2.44,0,0,1-.83-.89A2.39,2.39,0,0,0,.9,11.1a1.7,1.7,0,0,0-.73,0c-.14,0-.22.18-.13.31a1.41,1.41,0,0,0,.36.29,3,3,0,0,1,1.21,1.51,2.6,2.6,0,0,0,.6,1,2.57,2.57,0,0,0,1.65.61c.42,0,.85,0,1.29,0a.33.33,0,0,1,.33.33v.73c0,.17,0,.64,0,1a.49.49,0,0,0,.5.49h4.55a.49.49,0,0,0,.5-.49c0-.8,0-2.36,0-3.07a3.38,3.38,0,0,0-.24-1.41c-.13-.26-.3-.5-.45-.75.41-.07.85-.13,1.29-.24a4.7,4.7,0,0,0,2.86-1.81,5.32,5.32,0,0,0,.84-2.44l0-.27h0Z"/></g></g></svg>