<?xml version="1.0" encoding="UTF-8"?>
<svg width="42px" height="42px" viewBox="0 0 42 42" version="1.1" xmlns="http://www.w3.org/2000/svg" xmlns:xlink="http://www.w3.org/1999/xlink">
    <title>black_discord copy 11@1x</title>
    <g id="CELESTIA" stroke="none" stroke-width="1" fill="none" fill-rule="evenodd">
        <g id="ALLICO" transform="translate(-508.000000, -93.000000)">
            <g id="black_discord-copy-11" transform="translate(508.000000, 93.000000)">
                <rect id="Rectangle" x="0" y="0" width="42" height="42"></rect>
                <path d="M27.9821921,11.7647275 C28.3522154,13.0392616 28.0599273,13.9653562 27.9580622,14.2151682 C27.8584022,14.7560847 27.9822558,14.8770406 28.0996584,15.0051265 C28.8184647,15.7893414 29.25,16.7912419 29.25,18.0146113 C29.25,19.9430094 28.7744439,21.2398913 27.9825175,22.0956999 C26.9407942,23.2214557 25.4044522,23.5720471 23.9337132,23.7353725 L23.9337132,23.7353725 L22.2204584,23.9256292 L23.5275182,25.0494772 C23.8878531,25.3593036 24.1562148,25.9931532 24.1562148,26.9078196 C24.1562148,28.0779912 24.1490245,29.2711605 24.1442644,30.0614522 L24.144,30.002 L19.1388197,30.1246164 C19.1335194,29.4218257 19.1297342,28.9211437 19.1268497,28.4633847 L19.1256668,28.2693661 C19.1236896,27.9332463 19.1220353,27.5857991 19.1204311,27.2567525 C18.8589311,27.3693265 18.5594154,27.4663177 18.2163576,27.5408955 C16.2590666,27.9663936 15.2883258,27.1396988 14.8971089,26.6410255 L14.895,26.638 L15.0122043,26.7296567 C15.2894299,26.9336441 15.5718329,27.0723065 15.8528348,27.1665859 L15.9931886,27.210124 C17.0772004,27.519711 18.1635774,27.1794178 18.7246415,26.9275731 C19.24643,25.7342952 19.4671955,25.2967341 19.7426772,25.056131 L19.7426772,25.056131 L21.0229425,23.9379593 L19.3339915,23.7460437 C17.8684044,23.5795089 16.3361992,23.2221592 15.2967312,22.0942944 C14.5059233,21.2362358 14.0302857,19.9391592 14.0302857,18.0146113 C14.0302857,16.7908844 14.4651648,15.7889508 15.1827199,15.0045982 C15.2998745,14.8765377 15.4234751,14.7554678 15.5534273,14.6420511 C15.2219485,13.9653099 14.9295115,13.0390826 15.2981054,11.7645036 C15.7236409,11.8301609 16.5909097,12.0805126 17.9405812,12.9947503 C19.544066,12.8234969 20.5980114,12.6874887 21.638498,12.682953 C22.6840781,12.6874891 23.7381191,12.8235507 24.7217715,13.0964934 C26.6917054,12.080527 27.5576297,11.8301652 27.9821921,11.7647275 Z" id="Fill-1" stroke="#FFFFFF" stroke-width="1.5"></path>
            </g>
        </g>
    </g>
</svg>