<svg width="310" height="478" viewBox="0 0 310 478" fill="none" xmlns="http://www.w3.org/2000/svg">
<path d="M310 196.1C310 184.2 300.3 174.5 288.4 174.5C276.5 174.5 266.8 184.2 266.8 196.1C266.8 257.8 216.6 307.9 155 307.9C93.4 307.9 43.2 257.7 43.2 196.1C43.2 184.2 33.5 174.5 21.6 174.5C9.7 174.5 0 184.2 0 196.1C0 274.3 58.1 339.1 133.4 349.6V434.8H77.8C65.9 434.8 56.2 444.5 56.2 456.4C56.2 468.3 65.9 478 77.8 478H232.3C244.2 478 253.9 468.3 253.9 456.4C253.9 444.5 244.2 434.8 232.3 434.8H176.7V349.6C251.9 339.1 310 274.2 310 196.1Z" fill="white"/>
<path d="M155 0C108.6 0 71 37.6 71 84V194.7C71 241.1 108.6 278.7 155 278.7C201.4 278.7 239 241.1 239 194.7V84C239 37.6 201.4 0 155 0ZM155.1 55.9C140 55.9 127.7 68.2 127.7 83.3C127.7 83.5 127.7 83.7 127.7 83.9L127.5 183.8C127.5 190.7 121.9 196.2 115.1 196.2C108.2 196.2 102.7 190.6 102.7 183.8V83.3V83.2C102.7 54.3 126.2 30.8 155.1 30.8C162 30.8 167.6 36.4 167.6 43.3C167.6 50.3 162 55.9 155.1 55.9Z" fill="white"/>
</svg>
