<svg width="470" height="470" viewBox="0 0 470 470" fill="none" xmlns="http://www.w3.org/2000/svg">
<path d="M235 302.296C282.177 302.296 320.423 264.051 320.423 216.873V85.423C320.423 38.245 282.177 0 235 0C187.823 0 149.577 38.245 149.577 85.423V216.874C149.577 264.051 187.823 302.296 235 302.296Z" fill="white"/>
<path d="M350.423 136.148V166.148H365.423V216.874C365.423 288.789 306.915 347.297 235 347.297C163.085 347.297 104.577 288.79 104.577 216.874V166.148H119.577V136.148H74.5771V216.874C74.5771 300.273 138.551 369 220 376.589V440H129.556V470H340.445V440H250V376.589C331.449 369 395.423 300.272 395.423 216.873V136.147H350.423V136.148Z" fill="white"/>
</svg>
