<svg width="90" height="76" viewBox="0 0 90 76" fill="none" xmlns="http://www.w3.org/2000/svg">
<path d="M89.7618 36.9941C89.7618 31.3061 85.1318 26.6801 79.4468 26.6801C76.9838 26.6801 74.6798 27.5811 72.8208 29.1571C72.7608 29.1941 72.6988 29.2291 72.6398 29.2671C65.9328 24.9761 57.0388 22.2361 47.2008 21.8641L53.0728 5.16607L67.7288 8.67007C67.7408 13.3031 71.5098 17.0701 76.1488 17.0701C80.7908 17.0701 84.5708 13.2931 84.5708 8.64907C84.5708 4.00307 80.7908 0.226074 76.1488 0.226074C72.6198 0.226074 69.6048 2.40807 68.3548 5.48607L50.9908 1.33607L43.7798 21.8261C33.5208 22.0191 24.2238 24.7951 17.2668 29.2301C15.3938 27.6051 13.0568 26.6791 10.5488 26.6791C4.86177 26.6791 0.23877 31.3061 0.23877 36.9931C0.23877 40.5111 2.05377 43.7611 4.99477 45.6531C4.81577 46.6781 4.70177 47.7171 4.70177 48.7761C4.70177 63.6621 22.7448 75.7731 44.9208 75.7731C67.1008 75.7731 85.1448 63.6621 85.1448 48.7761C85.1448 47.7491 85.0418 46.7391 84.8728 45.7411C87.8928 43.8631 89.7618 40.5661 89.7618 36.9941ZM58.5978 50.3471C55.0978 50.3471 52.2638 47.5131 52.2638 44.0091C52.2638 40.5111 55.0978 37.6751 58.5978 37.6751C62.0978 37.6751 64.9368 40.5111 64.9368 44.0091C64.9368 47.5131 62.0968 50.3471 58.5978 50.3471ZM59.8588 61.1531C59.6688 61.3471 55.1258 65.9741 44.8498 65.9741C34.5168 65.9741 30.3868 61.2851 30.2138 61.0831C29.6348 60.4061 29.7138 59.3801 30.3918 58.8001C31.0688 58.2251 32.0838 58.2991 32.6698 58.9661C32.7618 59.0701 36.2098 62.7371 44.8498 62.7371C53.6338 62.7371 57.4888 58.9391 57.5298 58.9021C58.1498 58.2661 59.1758 58.2541 59.8138 58.8751C60.4508 59.4941 60.4738 60.5061 59.8588 61.1531ZM25.8088 44.0091C25.8088 40.5111 28.6418 37.6751 32.1478 37.6751C35.6418 37.6751 38.4818 40.5111 38.4818 44.0091C38.4818 47.5131 35.6418 50.3471 32.1478 50.3471C28.6428 50.3471 25.8088 47.5131 25.8088 44.0091Z" fill="white"/>
</svg>
