<svg xmlns="http://www.w3.org/2000/svg" viewBox="0 0 13.51 17.2"><defs><style>.cls-1{fill:#fff;fill-rule:evenodd;}</style></defs><g id="Layer_2" data-name="Layer 2"><g id="Layer_1-2" data-name="Layer 1"><path class="cls-1" d="M4,1.57H4V7.62L2.46,10.21h8.59L9.46,7.62v-6h0A.79.79,0,1,0,9.49,0H4A.79.79,0,0,0,4,1.57Z"/><path class="cls-1" d="M13.11,13.59,12,11.71H1.54L.42,13.55a2.32,2.32,0,0,0,1.9,3.65h8.87a2.32,2.32,0,0,0,1.92-3.61Zm-9.86,2.1a1.24,1.24,0,1,1,1.23-1.24A1.24,1.24,0,0,1,3.25,15.69Z"/></g></g></svg>