<svg xmlns="http://www.w3.org/2000/svg" viewBox="0 0 18.37 12.19"><defs><style>.cls-1{fill:#fff;}</style></defs><g id="Layer_2" data-name="Layer 2"><g id="Layer_1-2" data-name="Layer 1"><polygon class="cls-1" points="7.63 8.1 11.09 6.09 7.63 4.08 7.63 8.1"/><path class="cls-1" d="M16.83,0H1.53A1.54,1.54,0,0,0,0,1.53v9.12a1.54,1.54,0,0,0,1.53,1.54h15.3a1.54,1.54,0,0,0,1.54-1.54V1.53A1.54,1.54,0,0,0,16.83,0ZM13,6.74l-5.7,3.32a.86.86,0,0,1-.38.1.79.79,0,0,1-.37-.1.76.76,0,0,1-.38-.65V2.78a.75.75,0,0,1,.38-.65.72.72,0,0,1,.75,0L13,5.44a.77.77,0,0,1,.37.65A.74.74,0,0,1,13,6.74Z"/></g></g></svg>