<svg width="414" height="414" viewBox="0 0 414 414" fill="none" xmlns="http://www.w3.org/2000/svg">
<g clip-path="url(#clip0_468_40)">
<path d="M401.395 341.29L331.827 271.722C327.096 266.99 319.425 266.99 314.693 271.722L307.35 279.065L278.443 250.157C298.704 223.91 310.778 191.035 310.778 155.388C310.777 69.707 241.07 0 155.389 0C69.707 0 0 69.707 0 155.388C0 241.07 69.707 310.777 155.389 310.777C191.035 310.777 223.91 298.704 250.158 278.442L279.065 307.35L271.722 314.693C266.991 319.424 266.991 327.095 271.722 331.827L341.291 401.395C357.888 417.992 384.798 417.992 401.395 401.395C417.992 384.797 417.992 357.887 401.395 341.29ZM155.389 79.34C113.455 79.34 79.34 113.455 79.34 155.389C79.34 166.435 70.386 175.389 59.34 175.389C48.294 175.389 39.34 166.435 39.34 155.389C39.339 91.4 91.399 39.34 155.389 39.34C166.435 39.34 175.389 48.294 175.389 59.34C175.389 70.386 166.435 79.34 155.389 79.34Z" fill="white"/>
</g>
<defs>
<clipPath id="clip0_468_40">
<rect width="413.842" height="413.842" fill="white"/>
</clipPath>
</defs>
</svg>
