<?xml version="1.0" encoding="UTF-8"?>
<svg width="42px" height="42px" viewBox="0 0 42 42" version="1.1" xmlns="http://www.w3.org/2000/svg" xmlns:xlink="http://www.w3.org/1999/xlink">
    <title>black_mail copy 2@1x</title>
    <g id="CELESTIA" stroke="none" stroke-width="1" fill="none" fill-rule="evenodd">
        <g id="ALLICO" transform="translate(-262.000000, -93.000000)">
            <g id="black_mail-copy-2" transform="translate(262.000000, 93.000000)">
                <rect id="Rectangle-Copy-2" x="0" y="0" width="42" height="42"></rect>
                <path d="M29.8481686,12.0967987 C29.7291318,11.9974307 29.5647598,11.9723896 29.4215337,12.0318035 L10.2562939,19.9478808 C10.0995898,20.0132321 9.99821673,20.167136 10.0000238,20.3369112 C10.0018796,20.5066864 10.1065492,20.6583676 10.2646267,20.7203233 L15.5409005,22.7693374 C15.6705283,22.8198713 15.8168262,22.8023656 15.9308714,22.7226742 L22.9303503,17.7447115 C23.1081196,17.6161847 23.3550976,17.6475165 23.4951421,17.8163614 C23.6351866,17.9852063 23.6203196,18.2337194 23.4611441,18.3846638 L17.6282451,24.0050787 C17.5467752,24.0836094 17.5007517,24.1918998 17.5007546,24.3050564 L17.5007546,29.915472 C17.5012992,30.1032 17.6273241,30.2673781 17.8085321,30.3164269 C17.9897401,30.3654757 18.1813702,30.2872794 18.2765301,30.1254563 L20.9155003,25.6049596 C20.972771,25.5074721 21.0971493,25.4731481 21.1963127,25.5274654 L26.0509513,28.1939335 C26.1662204,28.257463 26.3047304,28.2627903 26.4245386,28.2083022 C26.5443469,28.153814 26.6313637,28.0459184 26.6592393,27.9172874 L29.9923245,12.5017685 C30.021488,12.3506082 29.9662859,12.1955319 29.8481686,12.0967987 Z" id="Fill-2" fill="#FFFFFF"></path>
            </g>
        </g>
    </g>
</svg>