<svg xmlns="http://www.w3.org/2000/svg" viewBox="0 0 15.57 14.27"><defs><style>.cls-1{fill:#fff;fill-rule:evenodd;}</style></defs><g id="Layer_2" data-name="Layer 2"><g id="Layer_1-2" data-name="Layer 1"><path class="cls-1" d="M15.45.08A.33.33,0,0,0,15.12,0L.2,6.19a.33.33,0,0,0-.2.3.32.32,0,0,0,.21.3l4.1,1.59a.34.34,0,0,0,.31,0l5.45-3.88a.32.32,0,0,1,.41.5L5.94,9.35a.33.33,0,0,0-.1.23V14a.33.33,0,0,0,.24.31.31.31,0,0,0,.36-.15L8.5,10.59a.17.17,0,0,1,.22-.06l3.78,2.08a.32.32,0,0,0,.47-.22l2.6-12A.31.31,0,0,0,15.45.08Z"/></g></g></svg>