<?xml version="1.0" encoding="UTF-8"?>
<svg width="42px" height="42px" viewBox="0 0 42 42" version="1.1" xmlns="http://www.w3.org/2000/svg" xmlns:xlink="http://www.w3.org/1999/xlink">
    <title>black_twitter copy 2@1x</title>
    <g id="CELESTIA" stroke="none" stroke-width="1" fill="none" fill-rule="evenodd">
        <g id="ALLICO" transform="translate(-344.000000, -93.000000)">
            <g id="black_twitter-copy-2" transform="translate(344.000000, 93.000000)">
                <rect id="Rectangle-Copy-3" x="0" y="0" width="42" height="42"></rect>
                <path d="M28.952468,17.0457139 C28.9645744,17.2220292 28.9645744,17.3983445 28.9645744,17.5762847 C28.9645744,22.998182 24.8370912,29.2512797 17.2896608,29.2512797 L17.2896608,29.2480296 C15.0601259,29.2512797 12.8769043,28.6125634 11,27.4085009 C11.3241926,27.4475015 11.6500102,27.4670018 11.9766403,27.4678143 C13.8242941,27.4694393 15.6191347,26.8494921 17.0727199,25.7078305 C15.31688,25.6745988 13.7771684,24.5296871 13.239285,22.8584298 C13.8543571,22.9770566 14.488117,22.9526812 15.0918139,22.7877412 C13.177534,22.4009851 11.800325,20.7190838 11.800325,18.7658033 L11.800325,18.7138025 C12.3707089,19.031495 13.0093439,19.2078102 13.6626041,19.2273105 C11.8596384,18.0223542 11.3038797,15.6238167 12.3926468,13.7485374 C14.4759293,16.312015 17.5496648,17.8704143 20.8492789,18.0353544 C20.5185862,16.6102071 20.9703433,15.1168088 22.0363599,14.1149807 C23.6890108,12.5614564 26.2882389,12.6410826 27.8417632,14.2929209 C28.760715,14.1117306 29.6413975,13.7745378 30.4474101,13.2967804 C30.1411741,14.2466077 29.5001016,15.0534328 28.6437132,15.5661283 C29.4570384,15.4702518 30.2516758,15.2524984 31,14.9201807 C30.4491164,15.7456936 29.7552306,16.4647674 28.952468,17.0457139" id="Fill-1" fill="#FFFFFF"></path>
            </g>
        </g>
    </g>
</svg>