<svg xmlns="http://www.w3.org/2000/svg" viewBox="0 0 15.57 12.65"><defs><style>.cls-1{fill:#fff;fill-rule:evenodd;}</style></defs><g id="Layer_2" data-name="Layer 2"><g id="Layer_1-2" data-name="Layer 1"><path class="cls-1" d="M14,3.15c0,.14,0,.27,0,.41A9,9,0,0,1,4.9,12.65h0A9,9,0,0,1,0,11.22a6.45,6.45,0,0,0,.76,0,6.35,6.35,0,0,0,4-1.37,3.19,3.19,0,0,1-3-2.21,3.23,3.23,0,0,0,1.45-.06A3.2,3.2,0,0,1,.62,4.49v0a3.22,3.22,0,0,0,1.45.4,3.22,3.22,0,0,1-1-4.27A9.09,9.09,0,0,0,7.67,3.92,3.19,3.19,0,0,1,13.11,1a6.43,6.43,0,0,0,2-.78A3.24,3.24,0,0,1,13.74,2a6.8,6.8,0,0,0,1.83-.5A6.57,6.57,0,0,1,14,3.15"/></g></g></svg>