<?xml version="1.0" encoding="utf-8"?>
<!-- Generator: Adobe Illustrator 24.3.0, SVG Export Plug-In . SVG Version: 6.00 Build 0)  -->
<svg version="1.1" id="Layer_1" xmlns="http://www.w3.org/2000/svg" xmlns:xlink="http://www.w3.org/1999/xlink" x="0px" y="0px"
	 viewBox="0 0 12 12" style="enable-background:new 0 0 12 12;" xml:space="preserve">
<path d="M7.1,6l4.2-4.2c0.3-0.3,0.3-0.8,0-1.1s-0.8-0.3-1.1,0L6,4.9L1.8,0.7C1.5,0.4,1,0.4,0.7,0.7s-0.3,0.8,0,1.1L4.9,6l-4.2,4.2
	c-0.3,0.3-0.3,0.8,0,1.1s0.8,0.3,1.1,0L6,7.1l4.2,4.2c0.1,0.1,0.3,0.2,0.5,0.2s0.4-0.1,0.5-0.2c0.3-0.3,0.3-0.8,0-1.1L7.1,6z"/>
</svg>
