<?xml version="1.0" encoding="utf-8"?>
<!-- Generator: Adobe Illustrator 24.3.0, SVG Export Plug-In . SVG Version: 6.00 Build 0)  -->
<svg version="1.1" id="Layer_1" xmlns="http://www.w3.org/2000/svg" xmlns:xlink="http://www.w3.org/1999/xlink" x="0px" y="0px"
	 viewBox="0 0 19 22" style="enable-background:new 0 0 19 22;" xml:space="preserve">
<style type="text/css">
	.st0{fill:none;}
</style>
<g>
	<polygon class="st0" points="15,17.3 16.5,17.3 16.5,5.3 13.7,2.5 5,2.5 5,4 5,17.3 	"/>
	<path class="st0" d="M3,17.5V5H2.5v14.8H14v-0.5H4.9C3.9,19.3,3,18.5,3,17.5z"/>
	<path d="M4,5H3v12.5c0,1,0.8,1.8,1.8,1.8H14v-1c0-0.6,0.4-1,1-1H5V4C5,4.6,4.6,5,4,5z"/>
	<path d="M18,3.9L15.1,1c-0.3-0.3-0.8-0.5-1.3-0.5H4.9C3.9,0.5,3,1.3,3,2.3V3h1c0.6,0,1,0.4,1,1V2.5h8.7l2.8,2.8v12.1H15
		c0.6,0,1,0.4,1,1v1h0.7c1,0,1.8-0.8,1.8-1.8V5.2C18.5,4.7,18.3,4.3,18,3.9z M13.8,2.5L13.8,2.5L13.8,2.5z"/>
	<path d="M14,19.9H2.5V5H3V3H2.3c-1,0-1.8,0.8-1.8,1.8V20c0,1,0.8,1.8,1.8,1.8h11.8c1,0,1.8-0.8,1.8-1.8v-0.7h-2V19.9z"/>
	<path d="M15,17.3c-0.6,0-1,0.4-1,1v1h2v-1C16,17.8,15.5,17.3,15,17.3z"/>
	<path d="M4,5c0.6,0,1-0.4,1-1S4.6,3,4,3H3v2H4z"/>
</g>
</svg>
