<?xml version="1.0" encoding="utf-8"?>
<!-- Generator: Adobe Illustrator 24.3.0, SVG Export Plug-In . SVG Version: 6.00 Build 0)  -->
<svg version="1.1" id="Layer_1" xmlns="http://www.w3.org/2000/svg" xmlns:xlink="http://www.w3.org/1999/xlink" x="0px" y="0px"
	 viewBox="0 0 20 22" style="enable-background:new 0 0 20 22;" xml:space="preserve">
<style type="text/css">
	.st0{fill:none;}
</style>
<g>
	<path class="st0" d="M3.2,3.4C3.1,3.4,3,3.3,2.9,3.2c0,0-0.1-0.1-0.1-0.1c0-0.1-0.1-0.1-0.1-0.2c0-0.1,0-0.1-0.1-0.2
		c0-0.1,0-0.1,0-0.2c0-0.1,0-0.3,0.1-0.4c0,0,0.1-0.1,0.1-0.1h0c0,0,0,0,0,0C2.3,2,2,2.3,2,2.7v0.7L3.2,3.4C3.2,3.4,3.2,3.4,3.2,3.4
		z"/>
	<path class="st0" d="M4.6,2.7c0,0.1,0,0.1,0,0.2c0,0.1-0.1,0.1-0.1,0.2c0,0-0.1,0.1-0.1,0.1C4.2,3.3,4.1,3.4,4,3.4h14V2.7
		c0-0.2-0.1-0.4-0.2-0.5C17.7,2.1,17.5,2,17.3,2H4.4c0.1,0.2,0.2,0.3,0.2,0.5C4.6,2.6,4.6,2.6,4.6,2.7z"/>
	<path d="M4,3.4c-0.1,0-0.2,0.1-0.4,0.1c-0.1,0-0.3,0-0.4-0.1H2v2h16v-2H4z"/>
	<path d="M2.6,2.5c0,0.1,0,0.1,0,0.2c0,0.1,0,0.1,0.1,0.2c0,0.1,0.1,0.1,0.1,0.2c0,0,0.1,0.1,0.1,0.1C3,3.3,3.1,3.4,3.2,3.4
		c0,0,0,0,0,0H4c0.1-0.1,0.2-0.1,0.3-0.2c0,0,0.1-0.1,0.1-0.1c0-0.1,0.1-0.1,0.1-0.2c0-0.1,0-0.1,0-0.2c0-0.1,0-0.1,0-0.2
		c0-0.2-0.1-0.3-0.2-0.5H2.8c0,0-0.1,0.1-0.1,0.1C2.6,2.2,2.6,2.4,2.6,2.5z"/>
	<path d="M3.6,3.5c0.1,0,0.3,0,0.4-0.1H3.2C3.3,3.5,3.5,3.5,3.6,3.5z"/>
	<path d="M0,4.4v7.7c0,1.5,1.2,2.7,2.7,2.7c0,0,0,0,0,0h5.1c0.6,0,1-0.4,1-1s-0.4-1-1-1H2.7c0,0,0,0,0,0c-0.4,0-0.7-0.3-0.7-0.7V5.4
		H1C0.4,5.4,0,5,0,4.4z"/>
	<path d="M19,5.4h-1v6.7c0,0.2-0.1,0.4-0.2,0.5c-0.1,0.1-0.3,0.2-0.5,0.2H13c-0.6,0-1,0.4-1,1s0.4,1,1,1h4.3c0.7,0,1.4-0.3,1.9-0.8
		c0.5-0.5,0.8-1.2,0.8-1.9V4.4C20,5,19.6,5.4,19,5.4z"/>
	<path d="M19.2,0.8C18.7,0.3,18,0,17.3,0H2.7c0,0,0,0,0,0C1.2,0,0,1.2,0,2.7v1.7c0-0.6,0.4-1,1-1h1V2.7C2,2.3,2.3,2,2.7,2
		c0,0,0,0,0,0h0c0-0.1,0.1-0.1,0.1-0.2C3,1.7,3.1,1.6,3.2,1.6c0.2-0.1,0.5-0.1,0.8,0c0.1,0,0.2,0.1,0.3,0.2C4.4,1.9,4.4,1.9,4.4,2
		h12.9c0.2,0,0.4,0.1,0.5,0.2C17.9,2.3,18,2.5,18,2.7v0.7h1c0.6,0,1,0.4,1,1V2.7C20,2,19.7,1.3,19.2,0.8z"/>
	<path d="M1,3.4c-0.6,0-1,0.4-1,1s0.4,1,1,1h1v-2H1z"/>
	<path d="M19,3.4h-1v2h1c0.6,0,1-0.4,1-1S19.6,3.4,19,3.4z"/>
	<path d="M4.3,1.8C4.2,1.7,4.1,1.6,4,1.6c-0.2-0.1-0.5-0.1-0.8,0C3.1,1.6,3,1.7,2.9,1.8C2.8,1.9,2.8,1.9,2.8,2h1.7
		C4.4,1.9,4.4,1.9,4.3,1.8z"/>
	<path d="M13.2,16.6l-1.7,1.7v2.4c0,0.3-0.1,0.5-0.3,0.7l3.4-3.4c0.4-0.4,0.4-1,0-1.4S13.5,16.2,13.2,16.6z"/>
	<path d="M10.8,21.6c-0.1,0-0.2,0.1-0.4,0.1C10.6,21.7,10.7,21.7,10.8,21.6z"/>
	<path d="M9.4,18.3l-1.7-1.7c-0.4-0.4-1-0.4-1.4,0s-0.4,1,0,1.4l3.4,3.4c-0.2-0.2-0.3-0.4-0.3-0.7V18.3z"/>
	<path d="M10.4,21.7c-0.1,0-0.3,0-0.4-0.1C10.2,21.7,10.3,21.7,10.4,21.7z"/>
	<path d="M10.8,21.6c0.1-0.1,0.2-0.1,0.3-0.2l0,0C11,21.5,10.9,21.6,10.8,21.6z"/>
	<path d="M9.7,21.4c0.1,0.1,0.2,0.2,0.3,0.2C9.9,21.6,9.8,21.5,9.7,21.4L9.7,21.4z"/>
	<path d="M11.4,18.3v-7.4c0-0.6-0.4-1-1-1s-1,0.4-1,1v7.4l1,1L11.4,18.3z"/>
	<path d="M11.4,18.3l-1,1l-1-1v2.4c0,0.3,0.1,0.5,0.3,0.7l0,0c0.1,0.1,0.2,0.2,0.3,0.2c0.1,0,0.2,0.1,0.4,0.1s0.3,0,0.4-0.1
		c0.1,0,0.2-0.1,0.3-0.2l0,0c0.2-0.2,0.3-0.4,0.3-0.7V18.3z"/>
</g>
</svg>
