<?xml version="1.0" encoding="utf-8"?>
<!-- Generator: Adobe Illustrator 24.3.0, SVG Export Plug-In . SVG Version: 6.00 Build 0)  -->
<svg version="1.1" id="Layer_1" xmlns="http://www.w3.org/2000/svg" xmlns:xlink="http://www.w3.org/1999/xlink" x="0px" y="0px"
	 viewBox="0 0 16 16" style="enable-background:new 0 0 16 16;" xml:space="preserve">
<g>
	<path d="M15.4,1.9c-0.2-0.7-0.7-1.2-1.4-1.4c-0.7-0.2-1.4,0-1.8,0.5L6.3,7C6.2,7.1,6.2,7.2,6.2,7.3L5.8,9.6c0,0.2,0,0.3,0.1,0.4
		c0.1,0.1,0.2,0.1,0.4,0.1c0,0,0,0,0.1,0l2.3-0.3c0.1,0,0.2-0.1,0.3-0.1l5.9-5.9C15.4,3.3,15.6,2.6,15.4,1.9z M14.2,3.1L8.4,8.9
		L6.9,9.1l0.2-1.5L13,1.8c0.2-0.2,0.6-0.3,0.9-0.2c0.3,0.1,0.6,0.3,0.6,0.6C14.6,2.5,14.5,2.8,14.2,3.1z"/>
	<path d="M11.9,7.5c-0.3,0-0.5,0.2-0.5,0.5v5.8c0,0.4-0.3,0.7-0.7,0.7H2.2c-0.4,0-0.7-0.3-0.7-0.7V5.3c0-0.4,0.3-0.7,0.7-0.7H8
		c0.3,0,0.5-0.2,0.5-0.5S8.3,3.6,8,3.6H2.2c-0.9,0-1.7,0.8-1.7,1.7v8.5c0,0.9,0.8,1.7,1.7,1.7h8.5c0.9,0,1.7-0.8,1.7-1.7V8
		C12.4,7.7,12.2,7.5,11.9,7.5z"/>
</g>
</svg>
