<?xml version="1.0" encoding="utf-8"?>
<!-- Generator: Adobe Illustrator 24.3.0, SVG Export Plug-In . SVG Version: 6.00 Build 0)  -->
<svg version="1.1" id="Layer_1" xmlns="http://www.w3.org/2000/svg" xmlns:xlink="http://www.w3.org/1999/xlink" x="0px" y="0px"
	 viewBox="0 0 21 23" style="enable-background:new 0 0 21 23;" xml:space="preserve">
<path d="M20.8,8.5c0-1.6-0.6-2.9-1.5-4c0.2-0.4,0.7-1.9-0.1-3.9c0,0-1.2-0.4-4,1.5c-1.2-0.3-2.4-0.5-3.7-0.5c-1.3,0-2.5,0.2-3.7,0.5
	C4.9,0.2,3.7,0.6,3.7,0.6c-0.8,2-0.3,3.5-0.1,3.9C2.6,5.5,2,6.8,2,8.5c0,5.6,3.4,6.9,6.7,7.3c-0.4,0.4-0.8,1-0.9,2
	c-0.8,0.4-3,1-4.3-1.2c0,0-0.8-1.4-2.3-1.5c0,0-1.4,0-0.1,0.9c0,0,1,0.5,1.6,2.2c0,0,0.9,2.9,5,2c0,1.2,0,2.6,0,2.9h7.3
	c0-0.5,0-2.5,0-4.5c0-1.4-0.5-2.3-1-2.7C17.4,15.4,20.8,14.1,20.8,8.5z"/>
</svg>
