<?xml version="1.0" encoding="utf-8"?>
<!-- Generator: Adobe Illustrator 24.3.0, SVG Export Plug-In . SVG Version: 6.00 Build 0)  -->
<svg version="1.1" id="Layer_1" xmlns="http://www.w3.org/2000/svg" xmlns:xlink="http://www.w3.org/1999/xlink" x="0px" y="0px"
	 viewBox="0 0 15 14" style="enable-background:new 0 0 15 14;" xml:space="preserve">
<style type="text/css">
	.st0{fill-rule:evenodd;clip-rule:evenodd;}
</style>
<g id="Symbols">
	<g id="FOOTER" transform="translate(-811.000000, -1087.000000)">
		<g id="Group-9" transform="translate(718.000000, 1087.000000)">
			<path id="Rectangle" class="st0" d="M94.5,1.8l0.4-0.3c1.1-0.9,2.6-0.9,3.6,0c1,0.9,2.6,0.9,3.6,0l0.1,0c1.1-0.9,2.6-0.9,3.6,0
				l0.4,0.3c0.9,0.8,1.4,1.9,1.4,3.1v2.2c0,1.2-0.5,2.3-1.5,3.1l-3.3,2.7c-1.5,1.2-3.6,1.2-5.1,0l-3.3-2.7C93.5,9.4,93,8.3,93,7.1
				V4.9C93,3.7,93.5,2.6,94.5,1.8z"/>
		</g>
	</g>
</g>
</svg>
