<?xml version="1.0" encoding="utf-8"?>
<!-- Generator: Adobe Illustrator 24.3.0, SVG Export Plug-In . SVG Version: 6.00 Build 0)  -->
<svg version="1.1" id="Layer_1" xmlns="http://www.w3.org/2000/svg" xmlns:xlink="http://www.w3.org/1999/xlink" x="0px" y="0px"
	 viewBox="0 0 32 32" style="enable-background:new 0 0 32 32;" xml:space="preserve">
<g id="Symbols">
	<g id="btn_x2F_podcast_x2F_normal" transform="translate(1.000000, 1.000000)">
		<g id="button-play">
			<path d="M15,30.8L15,30.8C6.3,30.7-0.7,23.7-0.8,15C-0.8,6.3,6.3-0.8,15-0.8S30.8,6.3,30.8,15C30.8,23.7,23.7,30.8,15,30.8z
				 M15,0.7C7.1,0.7,0.8,7.1,0.8,15c0,7.8,6.4,14.2,14.3,14.3c7.9,0,14.2-6.4,14.2-14.3C29.2,7.1,22.9,0.7,15,0.7z"/>
			<path d="M12,21.4c-0.4,0-0.7-0.1-1-0.3c-0.6-0.4-1-1.1-0.9-1.8l0-7.3c-0.1-0.7,0.3-1.4,0.9-1.8c0.6-0.4,1.4-0.4,2.1,0l7.6,3.8
				c0.6,0.3,1.1,0.9,1.1,1.7l0,0l0,0c0,0.7-0.5,1.4-1.2,1.7L13,21.1C12.7,21.3,12.4,21.4,12,21.4C12,21.4,12,21.4,12,21.4z M12,11.4
				c-0.1,0-0.2,0-0.2,0.1c-0.2,0.1-0.2,0.3-0.2,0.4l0,7.4c0,0.2,0.1,0.4,0.2,0.5c0,0,0.1,0,0.2,0c0.1,0,0.2,0,0.3-0.1l7.6-3.8
				c0.2-0.1,0.3-0.2,0.3-0.4c0-0.1-0.1-0.3-0.3-0.3l-7.7-3.8C12.2,11.4,12.1,11.4,12,11.4z"/>
		</g>
	</g>
</g>
</svg>
