<?xml version="1.0" encoding="utf-8"?>
<!-- Generator: Adobe Illustrator 24.3.0, SVG Export Plug-In . SVG Version: 6.00 Build 0)  -->
<svg version="1.1" id="Layer_1" xmlns="http://www.w3.org/2000/svg" xmlns:xlink="http://www.w3.org/1999/xlink" x="0px" y="0px"
	 viewBox="0 0 24 19" style="enable-background:new 0 0 24 19;" xml:space="preserve">
<path d="M23.2,2.6c-0.8,0.4-1.7,0.6-2.7,0.7c1-0.6,1.7-1.5,2-2.6c-0.9,0.5-1.9,0.9-2.9,1.1c-1.8-1.9-4.7-2-6.5-0.2
	c-1.2,1.1-1.7,2.8-1.3,4.4C8.1,5.9,4.6,4.2,2.3,1.3C1,3.4,1.7,6.1,3.7,7.5C3,7.4,2.2,7.2,1.6,6.9v0.1c0,2.2,1.6,4.1,3.7,4.5
	c-0.7,0.2-1.4,0.2-2.1,0.1c0.6,1.9,2.3,3.2,4.3,3.2c-1.6,1.3-3.7,2-5.7,2c-0.4,0-0.7,0-1.1-0.1c2.1,1.4,4.6,2.1,7.1,2.1v0
	c8.5,0,13.2-7,13.2-13.2c0-0.2,0-0.4,0-0.6C21.8,4.3,22.6,3.5,23.2,2.6z"/>
</svg>
